<svg xmlns="http://www.w3.org/2000/svg" xmlns:xlink="http://www.w3.org/1999/xlink" xmlns:fi="http://pattern.flaticon.com/" x="0" y="0" width="800" height="700" viewBox="0 0 700 612.5"><rect x="0px" y="0px" width="100%" height="100%" opacity="0" fill="#ffffff"/><defs><g transform="matrix(0.8693332206306952 0.23293713442154176 -0.23293713442154176 0.8693332206306952 316.11492070875306 -53.61773264490242)" id="L1_224"><path d="M87.12402,49.68945c-2.89844-2.06421-7.08612-1.328-8.94122-0.85236c0.0127-4.17249-0.34821-6.88489-0.36151-6.97821  C77.75098,41.36621,77.3291,41,76.83105,41H11.4375c-0.49414,0-0.91406,0.36084-0.98828,0.84912  c-0.0498,0.32568-4.70605,32.75488,18.375,47.98535C28.9873,89.94238,29.17871,90,29.375,90h29.51855  c0.19531,0,0.38672-0.05713,0.5498-0.16504c5.31183-3.49841,9.13391-7.95972,11.89368-12.74231l1.61609-0.90515  C81.71973,71.29248,90,66.66943,90,56.42139C90,53.31348,89.03223,51.04834,87.12402,49.68945z M12.32324,43h63.61328  c0.17267,1.77502,0.47375,6.13812-0.00507,11.625H12.25659C11.79828,49.12988,12.13531,44.76672,12.32324,43z M58.5918,88H29.67773  c-12.05731-8.09857-16.05353-21.23303-17.2196-31.375h63.26459C74.52014,66.81287,70.51593,80.0014,58.5918,88z M73.03925,73.84717  c3.80054-8.09705,4.90204-16.68506,5.10376-22.92712c1.61841-0.50128,5.53583-1.22913,7.82086,0.3988  C87.31543,52.28076,88,53.99756,88,56.42139C88,65.11884,81.17535,69.28955,73.03925,73.84717z" fill="#d0d5db"/><path d="M38.53027,19.36035c2.58105,0,4.68066-2.09961,4.68066-4.68018S41.11133,10,38.53027,10c-0.55273,0-1,0.44775-1,1  s0.44727,1,1,1c1.47852,0,2.68066,1.20215,2.68066,2.68018s-1.20215,2.68018-2.68066,2.68018  c-2.58105,0-4.68066,2.09961-4.68066,4.68018s2.09961,4.68018,4.68066,4.68018c0.55273,0,1-0.44775,1-1s-0.44727-1-1-1  c-1.47852,0-2.68066-1.20215-2.68066-2.68018S37.05176,19.36035,38.53027,19.36035z" fill="#d0d5db"/><path d="M49.68359,19.36035c2.58105,0,4.68066-2.09961,4.68066-4.68018S52.26465,10,49.68359,10c-0.55273,0-1,0.44775-1,1  s0.44727,1,1,1c1.47852,0,2.68066,1.20215,2.68066,2.68018s-1.20215,2.68018-2.68066,2.68018  c-2.58008,0-4.67969,2.09961-4.67969,4.68018s2.09961,4.68018,4.67969,4.68018c0.55273,0,1-0.44775,1-1s-0.44727-1-1-1  c-1.47754,0-2.67969-1.20215-2.67969-2.68018S48.20605,19.36035,49.68359,19.36035z" fill="#d0d5db"/></g><g transform="matrix(0.20000000298023224 0 0 0.20000000298023224 252.5 340)" id="L1_225"><path d="M35.30078,19.5127h2.42383c0.55273,0,1-0.44727,1-1s-0.44727-1-1-1h-2.42383c-0.55273,0-1,0.44727-1,1  S34.74805,19.5127,35.30078,19.5127z" fill="#d0d5db"/><path d="M42.04492,19.5127h2.42285c0.55273,0,1-0.44727,1-1s-0.44727-1-1-1h-2.42285c-0.55273,0-1,0.44727-1,1  S41.49219,19.5127,42.04492,19.5127z" fill="#d0d5db"/><path d="M48.78809,19.5127h2.42383c0.55273,0,1-0.44727,1-1s-0.44727-1-1-1h-2.42383c-0.55273,0-1,0.44727-1,1  S48.23535,19.5127,48.78809,19.5127z" fill="#d0d5db"/><path d="M55.53223,19.5127h2.42285c0.55273,0,1-0.44727,1-1s-0.44727-1-1-1h-2.42285c-0.55273,0-1,0.44727-1,1  S54.97949,19.5127,55.53223,19.5127z" fill="#d0d5db"/><path d="M62.27539,19.5127h2.42383c0.55273,0,1-0.44727,1-1s-0.44727-1-1-1h-2.42383c-0.55273,0-1,0.44727-1,1  S61.72266,19.5127,62.27539,19.5127z" fill="#d0d5db"/><path d="M42.33105,64.21094c3.25879,0,5.90918-3.21484,5.90918-7.16699s-2.65039-7.16797-5.90918-7.16797  c-3.25781,0-5.9082,3.21582-5.9082,7.16797S39.07324,64.21094,42.33105,64.21094z M46.24023,57.04395  c0,2.03186-0.90021,3.77667-2.19403,4.62006c-0.15948-1.01007-0.51361-1.66296-0.83624-2.2558  c-0.37988-0.69824-0.67969-1.25-0.67969-2.46875s0.2998-1.77051,0.67969-2.46875c0.30219-0.55524,0.62878-1.16925,0.80048-2.07355  C45.32404,53.23102,46.24023,54.99219,46.24023,57.04395z M42.0683,51.91107c-0.10718,0.66443-0.33923,1.09735-0.61517,1.60455  c-0.43262,0.79492-0.92285,1.69629-0.92285,3.42383s0.49023,2.62891,0.92285,3.42383  c0.30377,0.55835,0.55341,1.02875,0.64246,1.81616c-2.04382-0.16455-3.67273-2.39343-3.67273-5.1355  C38.42285,54.31329,40.03748,52.09363,42.0683,51.91107z" fill="#d0d5db"/><path d="M52.8252,61.05859c-2.79492,2.79395-3.19336,6.94238-0.88965,9.24609c0.98438,0.98438,2.31445,1.50684,3.80176,1.50684  c0.24609,0,0.49609-0.01465,0.75-0.04297c1.70312-0.19434,3.37012-1.03027,4.69434-2.35449  c2.79395-2.79395,3.19336-6.94141,0.88965-9.24512C59.7666,57.86523,55.61914,58.26367,52.8252,61.05859z M54.23926,62.47266  c1.18945-1.18945,2.67969-1.81543,4.01562-1.81543c0.83209,0,1.59552,0.25824,2.19653,0.76062  c-0.54773,0.39667-1.0188,0.53864-1.57446,0.70227c-0.86816,0.25684-1.85254,0.54785-3.07324,1.76953  c-1.22168,1.2207-1.5127,2.20508-1.76953,3.07324c-0.17963,0.60992-0.33539,1.11884-0.82916,1.73853  C51.87622,67.1394,52.30017,64.41174,54.23926,62.47266z M59.76758,68c-1.00586,1.00586-2.25098,1.63867-3.50586,1.78125  c-0.46692,0.0531-0.90057,0.01569-1.30981-0.06946c0.59869-0.82446,0.81006-1.53534,1.00122-2.18152  c0.22461-0.7627,0.40234-1.36426,1.26465-2.22656s1.46387-1.04004,2.22656-1.26465c0.60614-0.17932,1.27124-0.38275,2.03156-0.90051  C61.81537,64.65686,61.21826,66.54932,59.76758,68z" fill="#d0d5db"/><path d="M57.20898,54.03809c1.44434,0,2.80371-0.49121,3.81055-1.49805c2.30371-2.30371,1.90527-6.45215-0.88965-9.24609  C57.33594,40.5,53.1875,40.09961,50.88379,42.4043c-2.30371,2.30371-1.90527,6.45215,0.88965,9.24609  C53.34668,53.22363,55.34863,54.03809,57.20898,54.03809z M54.7002,42.89258c1.33496,0,2.82617,0.62695,4.01562,1.81543  c1.93042,1.93042,2.35791,4.64154,1.05084,6.20703c-0.39355-0.54553-0.53546-1.01544-0.69928-1.56934  c-0.25684-0.86816-0.54688-1.85254-1.76855-3.07422s-2.20605-1.51172-3.07422-1.76855  c-0.61047-0.17999-1.12073-0.33612-1.74243-0.83246C53.08606,43.15594,53.85742,42.89258,54.7002,42.89258z M51.47168,45.41748  c0.82684,0.60126,1.53912,0.81287,2.18652,1.00439c0.7627,0.22461,1.36426,0.40234,2.22656,1.26367  c0.86133,0.8623,1.03906,1.46387,1.26465,2.22656c0.17944,0.60645,0.38251,1.27191,0.90057,2.03308  c-1.5188,0.3396-3.41235-0.25873-4.86249-1.70886C51.75037,48.79919,51.15289,46.92883,51.47168,45.41748z" fill="#d0d5db"/><path d="M27.14258,11.00098v7.30273l-2.27734,5.54883c-1.04395,2.54199-1.57324,5.22461-1.57324,7.97461V89c0,0.55273,0.44727,1,1,1  h51.41602c0.55273,0,1-0.44727,1-1V31.82715c0-2.75-0.5293-5.43262-1.57324-7.97461l-2.27734-5.54883v-7.30273  c0-0.55273-0.44727-1-1-1H28.14258C27.58984,10.00098,27.14258,10.44824,27.14258,11.00098z M74.70801,76.75391H25.29199V34.7832  h49.41602V76.75391z M25.29199,88v-9.24609h49.41602V88H25.29199z M70.85742,12.00098v5.51172h-1.83887c-0.55273,0-1,0.44727-1,1  s0.44727,1,1,1h2.1734l2.0932,5.09961c0.94434,2.2998,1.42285,4.72754,1.42285,7.21484v0.95605H25.29199v-0.95605  c0-2.4873,0.47852-4.91504,1.42285-7.21484l2.0932-5.09961h2.1734c0.55273,0,1-0.44727,1-1s-0.44727-1-1-1h-1.83887v-5.51172  H70.85742z" fill="#d0d5db"/></g><g transform="matrix(0.4000000059604645 0 0 0.4000000059604645 67.5 67.5)" id="L1_226"><path d="M33.31641,44.19824h1.70001l1.10419,33.6582c0.01758,0.53906,0.45996,0.9668,0.99951,0.9668h25.75977  c0.53955,0,0.98193-0.42773,0.99951-0.9668l1.10419-33.6582h1.70001c0.27295,0,0.53418-0.11133,0.72266-0.30859  c0.18896-0.19727,0.28857-0.46387,0.27637-0.73633l-0.27002-6.03125c-0.02393-0.53418-0.46436-0.95508-0.99902-0.95508h-1.04681  l-1.05719-5.46387c-0.09131-0.46973-0.50293-0.80957-0.98193-0.80957H36.67236c-0.479,0-0.89062,0.33984-0.98193,0.80957  l-1.05719,5.46387h-1.04681c-0.53467,0-0.9751,0.4209-0.99902,0.95508l-0.27002,6.03125  c-0.01221,0.27246,0.0874,0.53906,0.27637,0.73633C32.78223,44.08691,33.04346,44.19824,33.31641,44.19824z M62.26971,65.92285  H37.73029L37.3111,53.14453H62.6889L62.26971,65.92285z M38.08789,76.82324l-0.29199-8.90039h24.4082l-0.29199,8.90039H38.08789z   M62.75446,51.14453H37.24554l-0.22791-6.94629h25.96472L62.75446,51.14453z M37.49756,31.89355h25.00488l0.82678,4.27344H36.67078  L37.49756,31.89355z M34.54248,38.16699h30.91504l0.18018,4.03125H34.3623L34.54248,38.16699z" fill="#d0d5db"/><path d="M89,10H11c-0.55225,0-1,0.44727-1,1s0.44775,1,1,1h17.63867v7H18.03125c-0.55225,0-1,0.44727-1,1v69  c0,0.55273,0.44775,1,1,1h63.93652c0.55225,0,1-0.44727,1-1V20c0-0.55273-0.44775-1-1-1h-9.8291v-7H89c0.55225,0,1-0.44727,1-1  S89.55225,10,89,10z M80.96777,88H19.03125V21h61.93652V88z M70.13867,19h-39.5v-7h39.5V19z" fill="#d0d5db"/></g><g transform="matrix(0.4000000059604645 0 0 0.4000000059604645 240.5 67.5)" id="L1_227"><path d="M89,10H11c-0.55273,0-1,0.44775-1,1s0.44727,1,1,1h17.63867v12.06506c-9.03418,6.66296-14.9043,17.35419-14.9043,29.38855  C13.73438,73.60547,30.18652,90,50.40918,90c20.22168,0,36.67383-16.39453,36.67383-36.54639  c0-12.052-5.88788-22.75623-14.94434-29.41711V12H89c0.55273,0,1-0.44775,1-1S89.55273,10,89,10z M85.08301,53.45361  C85.08301,72.50244,69.52832,88,50.40918,88c-19.12012,0-34.6748-15.49756-34.6748-34.54639s15.55469-34.5459,34.6748-34.5459  C69.52832,18.90771,85.08301,34.40479,85.08301,53.45361z M70.13867,22.6712c-5.70135-3.6416-12.46942-5.76349-19.72949-5.76349  c-7.27753,0-14.06061,2.13184-19.77051,5.78925V12h39.5V22.6712z" fill="#d0d5db"/><path d="M29.38477,46.68604v3.92529c0,10.77734,5.55469,20.14062,13.82324,23.2998c0.11328,0.04346,0.23438,0.06592,0.35645,0.06592  h10.68652c0.12207,0,0.24316-0.02246,0.35645-0.06592c4.51483-1.72498,8.21094-5.30798,10.64508-9.95264h3.98969  c3.28125,0,5.95117-2.66992,5.95117-5.95166c0-3.28125-2.66992-5.95117-5.95117-5.95117h-0.85797  c0.02228-0.47955,0.04645-0.95862,0.04645-1.44434v-3.92529c0-0.55225-0.44727-1-1-1h-37.0459  C29.83203,45.68604,29.38477,46.13379,29.38477,46.68604z M54.06348,71.97705H43.75195  c-5.33636-2.11462-9.47589-7.37604-11.31744-13.85449h32.94647C63.53943,64.60101,59.39984,69.86243,54.06348,71.97705z   M69.24219,54.05566c2.17871,0,3.95117,1.77246,3.95117,3.95117s-1.77246,3.95166-3.95117,3.95166h-3.03802  c1.02094-2.43079,1.70691-5.09802,2.02228-7.90283H69.24219z M31.38477,47.68604h35.0459v2.92529  c0,1.88623-0.19592,3.73376-0.55707,5.51123H31.94183c-0.36115-1.77747-0.55707-3.625-0.55707-5.51123V47.68604z" fill="#d0d5db"/><path d="M46.24023,43.15674c0.55273,0,1-0.44775,1-1s-0.44727-1-1-1c-0.75,0-1.36035-0.61035-1.36035-1.36035  s0.61035-1.35986,1.36035-1.35986c1.85254,0,3.36035-1.50732,3.36035-3.36035c0-1.85254-1.50781-3.35986-3.36035-3.35986  c-0.55273,0-1,0.44775-1,1s0.44727,1,1,1c0.75,0,1.36035,0.60986,1.36035,1.35986s-0.61035,1.36035-1.36035,1.36035  c-1.85254,0-3.36035,1.50732-3.36035,3.35986C42.87988,41.64941,44.3877,43.15674,46.24023,43.15674z" fill="#d0d5db"/><path d="M53.39258,36.43652c-1.85254,0-3.36035,1.50732-3.36035,3.35986c0,1.85303,1.50781,3.36035,3.36035,3.36035  c0.55273,0,1-0.44775,1-1s-0.44727-1-1-1c-0.75,0-1.36035-0.61035-1.36035-1.36035s0.61035-1.35986,1.36035-1.35986  c1.85254,0,3.36035-1.50732,3.36035-3.36035c0-1.85254-1.50781-3.35986-3.36035-3.35986c-0.55273,0-1,0.44775-1,1s0.44727,1,1,1  c0.75,0,1.36035,0.60986,1.36035,1.35986S54.14258,36.43652,53.39258,36.43652z" fill="#d0d5db"/></g><g transform="matrix(0.699999988079071 0 0 0.699999988079071 315 140)" id="L1_228"><path d="M14.56641,64.82031c2.52637,2.52637,5.69629,4.12012,8.92578,4.4873c0.47461,0.05371,0.94238,0.08008,1.40234,0.08008  c2.74902,0,5.19824-0.95605,7.00098-2.75879c2.10352-2.10352,3.05566-5.08789,2.67871-8.40332  c-0.36719-3.22949-1.96094-6.39941-4.4873-8.92578s-5.69629-4.12012-8.92676-4.4873c-3.31836-0.375-6.29883,0.5752-8.40234,2.67871  s-3.05566,5.08789-2.67871,8.40234C10.44629,59.12402,12.04004,62.29395,14.56641,64.82031z M28.67285,50.71387  c2.20801,2.20801,3.59766,4.95508,3.91406,7.7373c0.19019,1.67365-0.0271,3.23285-0.61584,4.57343  c-2.05396-1.87177-3.76135-2.39209-5.27771-2.84003c-1.55469-0.45898-3.02344-0.89258-4.96094-2.8291  c-1.93652-1.9375-2.37012-3.40625-2.83008-4.96191c-0.42529-1.44006-0.90015-3.04749-2.54932-4.96466  c1.0481-0.46204,2.20898-0.69745,3.42529-0.69745C22.76562,46.73145,26.05859,48.09961,28.67285,50.71387z M14.17188,48.90527  c0.14404-0.14404,0.29712-0.2749,0.45117-0.40442c1.53174,1.69257,1.94312,3.04266,2.36133,4.45911  c0.48633,1.64648,1.03711,3.5127,3.33398,5.80957s4.16309,2.84766,5.80859,3.33398c1.50146,0.44299,2.92603,0.87579,4.76514,2.6463  c-0.13257,0.15826-0.26367,0.31799-0.41064,0.46503c-1.66406,1.66309-4.05566,2.41113-6.76367,2.10547  c-2.78223-0.31641-5.5293-1.70605-7.7373-3.91406C11.48438,58.90918,10.67285,52.4043,14.17188,48.90527z" fill="#d0d5db"/><path d="M48.87793,62.93555c-6.05176,0-10.97461,6.07031-10.97461,13.53223S42.82617,90,48.87793,90  s10.97461-6.07031,10.97461-13.53223S54.92969,62.93555,48.87793,62.93555z M39.90332,76.46777  c0-6.35938,4.02637-11.53223,8.97461-11.53223c0.20435,0,0.4043,0.02203,0.60522,0.03937  C49.36853,67.2514,48.70483,68.49506,48,69.79199c-0.82129,1.50781-1.75098,3.2168-1.75098,6.46484S47.17871,81.21387,48,82.72168  c0.74707,1.37463,1.44861,2.68811,1.49756,5.23798C49.29199,87.97784,49.08716,88,48.87793,88  C43.92969,88,39.90332,82.82715,39.90332,76.46777z M51.48047,87.50165c-0.13-2.77271-0.96851-4.34698-1.72461-5.73505  c-0.77441-1.4248-1.50684-2.77051-1.50684-5.50977s0.73242-4.08496,1.50684-5.50977  c0.71875-1.31964,1.52051-2.79346,1.70947-5.31818c3.69043,1.43115,6.38721,5.83569,6.38721,11.03888  C57.85254,81.664,55.16321,86.06445,51.48047,87.50165z" fill="#d0d5db"/><path d="M71.88965,52.25293C66.58008,55.15625,65.17188,62.84375,68.75,69.3916c0,0,0,0,0.00098,0  c2.64648,4.8418,7.28906,7.72363,11.67676,7.72363c1.5459,0,3.06055-0.3584,4.44434-1.11426  c2.61133-1.42773,4.36328-4.02441,4.93359-7.31055c0.55664-3.20312-0.08105-6.69336-1.7959-9.82812  C84.43066,52.31641,77.20215,49.35254,71.88965,52.25293z M70.50488,68.43262h0.00098  c-3.0498-5.58008-1.99902-12.05078,2.34277-14.42383c0.17908-0.09796,0.36499-0.1745,0.54944-0.25562  c0.99133,2.05231,1.00562,3.461,1.00916,4.93726c0.00391,1.7168,0.00781,3.66211,1.56543,6.51172  c1.55859,2.85059,3.19434,3.9043,4.6377,4.83398c1.31567,0.84723,2.56128,1.66388,3.82812,3.87799  c-0.17188,0.11469-0.34277,0.2312-0.52539,0.33099C79.57227,76.62109,73.55566,74.01172,70.50488,68.43262z M87.83496,68.34766  c-0.28784,1.65948-0.93481,3.09442-1.87646,4.21497c-1.44434-2.37231-2.93591-3.35199-4.26514-4.20813  c-1.36328-0.87793-2.65137-1.70703-3.96582-4.11133c-1.31348-2.40332-1.31641-3.93555-1.32031-5.55664  c-0.00342-1.5025-0.00696-3.18073-1.05176-5.48645c3.92578-0.51569,8.40405,2.0575,10.90039,6.62122  C87.75293,62.56152,88.31445,65.58887,87.83496,68.34766z" fill="#d0d5db"/><path d="M55.13184,31.89062c-3.22656,0.39941-6.37988,2.02441-8.88086,4.57617c-2.50195,2.55176-4.06348,5.73828-4.39844,8.9707  c-0.34277,3.31934,0.6377,6.29297,2.7627,8.37598c1.79492,1.75977,4.20898,2.68945,6.91113,2.68945  c0.49707,0,1.00391-0.03125,1.51855-0.09473c3.22656-0.39941,6.37988-2.02441,8.88086-4.57617  c5.22266-5.3291,5.95605-13.11133,1.63477-17.34668C61.43652,32.40137,58.44238,31.48242,55.13184,31.89062z M43.8418,45.64355  c0.28906-2.78516,1.65137-5.54688,3.83691-7.77637c2.18555-2.23047,4.91992-3.64746,7.69824-3.99121  c0.42969-0.05371,0.85156-0.08008,1.26465-0.08008c2.17773,0,4.10645,0.73242,5.51855,2.11719  c0.146,0.14307,0.27344,0.29895,0.40491,0.45209c-1.67554,1.5451-3.01978,1.96857-4.43127,2.40143  c-1.64062,0.50293-3.50098,1.07227-5.77441,3.3916c-2.27441,2.32031-2.80664,4.19141-3.27637,5.84277  c-0.42798,1.50519-0.84729,2.93463-2.59851,4.79071c-0.15955-0.13104-0.32043-0.26038-0.46887-0.40594  C44.33496,50.73828,43.5625,48.34375,43.8418,45.64355z M60.49805,50.43164c-2.18555,2.23047-4.91992,3.64746-7.69824,3.99121  c-1.67358,0.20844-3.23438,0.00659-4.57996-0.56897c1.85095-2.073,2.35437-3.7851,2.78699-5.30603  c0.44336-1.55957,0.86328-3.0332,2.78027-4.98926c1.91797-1.95605,3.38184-2.40527,4.93262-2.87988  c1.43677-0.44019,3.04102-0.93134,4.94312-2.60181C65.29651,41.6825,64.13916,46.71625,60.49805,50.43164z" fill="#d0d5db"/><path d="M20.10059,35.3877c1.82324,1.73535,4.22949,2.5752,6.78906,2.5752c3.59277,0,7.48633-1.65527,10.49121-4.81152  c5.14355-5.40527,5.7627-13.19629,1.37891-17.36914c-2.15527-2.05078-5.16309-2.92578-8.4668-2.46973  c-3.21973,0.44727-6.34961,2.11816-8.8125,4.70605C16.33691,23.42383,15.71777,31.21484,20.10059,35.3877z M35.93164,31.77246  c-3.58203,3.76318-8.56494,5.09741-12.22363,3.59937c1.81787-2.09814,2.29614-3.81689,2.70605-5.34351  c0.4209-1.56543,0.81836-3.04492,2.70703-5.0293s3.34668-2.4541,4.88965-2.95215c1.42969-0.46063,3.0271-0.97595,4.90442-2.67407  C40.60193,22.95398,39.51843,28.00348,35.93164,31.77246z M22.92969,19.39746c2.15234-2.26172,4.86523-3.71875,7.63867-4.10352  c0.47754-0.06641,0.94629-0.09961,1.4043-0.09961c2.12109,0,4.00684,0.70312,5.4082,2.03711  c0.14795,0.14081,0.27759,0.29468,0.41113,0.44574c-1.65234,1.56982-2.99011,2.01306-4.39453,2.46637  c-1.63379,0.52637-3.48633,1.12402-5.72559,3.47656s-2.74414,4.23145-3.18945,5.88965  c-0.40613,1.51044-0.80371,2.94531-2.52673,4.82642c-0.16125-0.12854-0.32483-0.2536-0.4762-0.39771  C17.89551,30.52637,18.5459,24.00391,22.92969,19.39746z" fill="#d0d5db"/><path d="M75.74902,32.10059c6.27051,0,11.60059-3.63379,12.4541-8.87695c0.47754-2.93652-0.49414-5.91406-2.7373-8.38379  c-2.18555-2.40723-5.33105-4.04785-8.85742-4.62207c-7.3623-1.19824-14.14746,2.6875-15.11914,8.66113  c-0.47754,2.93652,0.49414,5.91406,2.7373,8.38379c2.18555,2.40625,5.33105,4.04688,8.85742,4.62109  C73.98438,32.03027,74.875,32.10059,75.74902,32.10059z M73.92578,12c0.77246,0,1.56348,0.0625,2.3623,0.19238  c3.08105,0.50098,5.81445,1.91895,7.69727,3.99219c1.82422,2.00977,2.62109,4.39551,2.24316,6.71875  c-0.03271,0.20129-0.08667,0.39478-0.13586,0.58997c-2.22827-0.47833-3.34851-1.33264-4.5155-2.23743  c-1.35645-1.05176-2.89453-2.24414-6.10059-2.76562c-3.20312-0.51855-5.04199,0.12305-6.66211,0.68945  c-1.47778,0.51831-2.88672,1.00092-5.41211,0.63696c0.01514-0.20599,0.02808-0.41211,0.06152-0.61743  C64.15723,14.93652,68.62695,12,73.92578,12z M65.70703,25.91797c-1.13184-1.24695-1.86633-2.63885-2.172-4.0705  c2.75586,0.31671,4.44873-0.25854,5.94055-0.78009c1.5332-0.53516,2.97852-1.04004,5.68066-0.60254  c2.70312,0.43945,3.91406,1.37793,5.19531,2.37207c1.18799,0.92047,2.51367,1.94781,4.97437,2.54022  c-2.00635,3.41321-6.79053,5.36554-11.92163,4.53204C70.32324,29.4082,67.58984,27.99023,65.70703,25.91797z" fill="#d0d5db"/></g><g transform="matrix(0.20000000298023224 0 0 0.20000000298023224 77.5 340)" id="L1_229"><path d="M18.78564,19.5127h2.35596c0.55225,0,1-0.44727,1-1s-0.44775-1-1-1h-2.35596c-0.55225,0-1,0.44727-1,1  S18.2334,19.5127,18.78564,19.5127z" fill="#d0d5db"/><path d="M25.34131,19.5127h2.35596c0.55225,0,1-0.44727,1-1s-0.44775-1-1-1h-2.35596c-0.55225,0-1,0.44727-1,1  S24.78906,19.5127,25.34131,19.5127z" fill="#d0d5db"/><path d="M31.89746,19.5127h2.35596c0.55225,0,1-0.44727,1-1s-0.44775-1-1-1h-2.35596c-0.55225,0-1,0.44727-1,1  S31.34521,19.5127,31.89746,19.5127z" fill="#d0d5db"/><path d="M38.45312,19.5127h2.35596c0.55225,0,1-0.44727,1-1s-0.44775-1-1-1h-2.35596c-0.55225,0-1,0.44727-1,1  S37.90088,19.5127,38.45312,19.5127z" fill="#d0d5db"/><path d="M45.00879,19.5127h2.35596c0.55225,0,1-0.44727,1-1s-0.44775-1-1-1h-2.35596c-0.55225,0-1,0.44727-1,1  S44.45654,19.5127,45.00879,19.5127z" fill="#d0d5db"/><path d="M11,90h44.15039c0.55225,0,1-0.44727,1-1V30.2832c0-0.02344-0.00098-0.04688-0.00244-0.07031l-0.82422-11.71191v-7.5  c0-0.55273-0.44775-1-1-1H11.82666c-0.55225,0-1,0.44727-1,1l0.00244,7.42969L10,30.2832V89C10,89.55273,10.44775,90,11,90z   M54.15039,76.75391H11.99951l-0.00177-41.9707h42.15265V76.75391z M12,88l-0.00037-9.24609h42.15076V88H12z M53.32422,12.00098  l0.00165,5.51172h-1.76141c-0.55225,0-1,0.44727-1,1s0.44775,1,1,1h1.82776l0.75818,10.80566v2.46484H11.99768l-0.00012-2.42969  l0.7583-10.84082h1.83008c0.55225,0,1-0.44727,1-1s-0.44775-1-1-1h-1.75928v-5.51172H53.32422z" fill="#d0d5db"/><path d="M89,54.9668c0.27246,0,0.53271-0.11133,0.72119-0.30762s0.28906-0.46094,0.27783-0.73242l-0.23389-5.76953  c-0.02148-0.53613-0.4624-0.95996-0.99902-0.95996h-0.77905l-0.90552-5.17383c-0.0835-0.47852-0.49902-0.82715-0.98486-0.82715  H63.0376c-0.48584,0-0.90137,0.34863-0.98486,0.82715l-0.90552,5.17383h-0.77905c-0.53662,0-0.97754,0.42383-0.99902,0.95996  l-0.23389,5.76953c-0.01123,0.27148,0.08936,0.53613,0.27783,0.73242s0.44873,0.30762,0.72119,0.30762h1.33612l0.18359,6.55762  h-0.22577c-0.271,0-0.52979,0.10938-0.71826,0.30469c-0.18848,0.19434-0.29004,0.45703-0.28125,0.72754l0.51318,16.04883  c0.01709,0.53906,0.45947,0.96777,0.99951,0.96777h0.21814l0.26526,9.45508C62.43994,89.56934,62.88281,90,63.42432,90h22.28467  c0.5415,0,0.98438-0.43066,0.99951-0.97168l0.26514-9.45508h0.21924c0.54004,0,0.98242-0.42871,0.99951-0.96777l0.51318-16.04883  c0.00879-0.27051-0.09277-0.5332-0.28125-0.72754c-0.18848-0.19531-0.44727-0.30469-0.71826-0.30469h-0.22577l0.18359-6.55762H89z   M63.87793,43.19629h21.37842l0.70044,4.00098h-22.7793L63.87793,43.19629z M61.32861,49.19727h26.47705l0.15283,3.76953H61.17578  L61.32861,49.19727z M86.67334,63.52441l-0.44922,14.04883H62.91016l-0.44922-14.04883H86.67334z M84.73682,88H64.39648  l-0.23633-8.42676h20.81287L84.73682,88z M85.47968,61.52441H63.6546l-0.18359-6.55762h22.19226L85.47968,61.52441z" fill="#d0d5db"/><path d="M23.0752,67.08789h20c0.55225,0,1-0.44727,1-1v-9.6875c0-0.55273-0.44775-1-1-1h-20c-0.55225,0-1,0.44727-1,1v9.6875  C22.0752,66.64062,22.52295,67.08789,23.0752,67.08789z M24.0752,57.40039h18v7.6875h-18V57.40039z" fill="#d0d5db"/><path d="M23.0752,50.58301h20c0.55225,0,1-0.44727,1-1s-0.44775-1-1-1h-20c-0.55225,0-1,0.44727-1,1  S22.52295,50.58301,23.0752,50.58301z" fill="#d0d5db"/><path d="M23.0752,44h20c0.55225,0,1-0.44727,1-1s-0.44775-1-1-1h-20c-0.55225,0-1,0.44727-1,1S22.52295,44,23.0752,44z" fill="#d0d5db"/></g><g transform="matrix(0.6761480668876146 -0.18117332848640108 0.18117332848640108 0.6761480668876146 132.12879621014207 150.2177382207623)" id="L1_230"><path d="M33.38965,31.18896l-1.27008,6.53992c-0.97894,0.16541-1.52338,0.27991-1.55219,0.28625  c-0.44336,0.09619-0.7666,0.479-0.78711,0.93213l-0.29688,6.5957c-0.01367,0.29443,0.10449,0.58008,0.32129,0.77979  c0.2168,0.2002,0.5127,0.29736,0.80371,0.25732c0.03625-0.00452,0.74561-0.09198,1.9917-0.21558l1.29053,37.05786  c0.0166,0.4834,0.37598,0.88525,0.85449,0.95508c0.01263,0.00183,0.15613,0.02179,0.39703,0.05243l0.35199,3.66827  c0.04199,0.44482,0.375,0.80713,0.81445,0.8877c0.33496,0.06152,5.7041,1.02197,13.46387,1.02197  c3.99414,0,8.62305-0.25488,13.52148-1.01709c0.45117-0.07031,0.79785-0.43799,0.84082-0.89258l0.35291-3.67792  c0.12262-0.01385,0.24286-0.02509,0.36584-0.03937c0.49121-0.05664,0.86719-0.46436,0.88379-0.9585l1.29242-37.08472  c0.66266,0.07507,1.32495,0.15436,1.9859,0.24146c0.04395,0.00586,0.08789,0.00879,0.13086,0.00879  c0.24902,0,0.49023-0.09277,0.67578-0.26318c0.21777-0.19971,0.33691-0.48633,0.32324-0.78174l-0.31348-6.96436  c-0.02148-0.479-0.37988-0.87549-0.85449-0.94482c-0.513-0.07483-1.02026-0.1424-1.5274-0.2099l-1.21185-6.23541  c-0.07617-0.39111-0.37695-0.7002-0.7666-0.78564c-16.98047-3.73096-31.26758-0.01904-31.39746,0.02148  C33.72266,30.53369,33.45996,30.82715,33.38965,31.18896z M34.59418,46.18073c0.9198-0.07922,1.97528-0.16248,3.15485-0.24329  v36.76459c-0.78857-0.07495-1.43774-0.14508-1.88965-0.19861L34.59418,46.18073z M56.34668,83.07458V45.57898  c1.16437,0.03876,2.3429,0.09094,3.53223,0.15863v37.10797C58.67798,82.93817,57.49426,83.01758,56.34668,83.07458z   M54.34668,83.15759c-1.22046,0.04218-2.39398,0.06409-3.53223,0.07361V45.48737c1.15302,0.00031,2.33228,0.01245,3.53223,0.03754  V83.15759z M48.81445,83.23389c-1.24359-0.00781-2.42377-0.0307-3.53223-0.06653V45.56903  c1.13745-0.03369,2.31464-0.05927,3.53223-0.07239V83.23389z M43.28223,83.08795c-1.31128-0.06226-2.50195-0.1366-3.5332-0.21509  V45.8114c1.1048-0.06415,2.28485-0.12317,3.5332-0.17303V83.08795z M62.21875,87.12988  c-11.75977,1.70898-22.02539,0.42578-24.80762,0.0083l-0.23853-2.48206c2.55011,0.25183,6.95752,0.58313,12.49536,0.58313  c3.80682,0,8.15228-0.1593,12.79059-0.60626L62.21875,87.12988z M63.76855,82.49023  c-0.63702,0.0694-1.26343,0.12769-1.88965,0.18604V45.86469c1.04877,0.07477,2.10242,0.16388,3.15759,0.26532L63.76855,82.49023z   M68.09375,44.44727c-15.85059-1.91748-32.11914-0.45557-36.55957,0.01562l0.20898-4.63867  c3.28876-0.60034,17.00909-2.74646,34.59497-0.52966c0.07086,0.02039,0.14325,0.0246,0.21851,0.02881  c0.43652,0.05585,0.87335,0.11194,1.31445,0.17322L68.09375,44.44727z M52.53778,30.81158  c-0.23456,1.26965-1.3501,2.23627-2.69305,2.23627c-1.34442,0-2.46088-0.97021-2.69275-2.24304  C48.84198,30.75012,50.64081,30.74292,52.53778,30.81158z M45.16083,30.89331c0.28827,2.33453,2.26611,4.15454,4.6839,4.15454  c2.41284,0,4.38855-1.8125,4.68335-4.14008c3.1358,0.1958,6.46899,0.59985,9.87329,1.31097l0.961,4.94464  c-14.06317-1.63-25.56281-0.5459-31.14294,0.24164l1.01495-5.2229C36.78015,31.80609,40.38226,31.16833,45.16083,30.89331z" fill="#d0d5db"/><path d="M45.35938,16.125c-2.24023,0-4.0625,1.82227-4.0625,4.0625s1.82227,4.0625,4.0625,4.0625c0.55273,0,1-0.44775,1-1  s-0.44727-1-1-1c-1.1377,0-2.0625-0.92529-2.0625-2.0625s0.9248-2.0625,2.0625-2.0625c2.24023,0,4.0625-1.82227,4.0625-4.0625  S47.59961,10,45.35938,10c-0.55273,0-1,0.44775-1,1s0.44727,1,1,1c1.1377,0,2.0625,0.92529,2.0625,2.0625  S46.49707,16.125,45.35938,16.125z" fill="#d0d5db"/><path d="M54.64062,16.125c-2.24023,0-4.0625,1.82227-4.0625,4.0625s1.82227,4.0625,4.0625,4.0625c0.55273,0,1-0.44775,1-1  s-0.44727-1-1-1c-1.1377,0-2.0625-0.92529-2.0625-2.0625s0.9248-2.0625,2.0625-2.0625c2.24023,0,4.0625-1.82227,4.0625-4.0625  S56.88086,10,54.64062,10c-0.55273,0-1,0.44775-1,1s0.44727,1,1,1c1.1377,0,2.0625,0.92529,2.0625,2.0625  S55.77832,16.125,54.64062,16.125z" fill="#d0d5db"/></g><path d="M24.72949,32.83936c0.05103-0.00647,1.11517-0.1377,2.95801-0.31769l0.40997,11.34625  c-1.07263,0.08551-1.67133,0.14276-1.70782,0.14624c-0.52539,0.05127-0.9209,0.50293-0.90137,1.03076l0.91895,25.93994  c0.0166,0.47363,0.36426,0.87061,0.83105,0.9502c0.03125,0.00525,0.65436,0.10638,1.79291,0.2478l0.37115,9.46997  c0.01855,0.48145,0.37793,0.88086,0.85449,0.9502c0.02026,0.00299,0.28833,0.04071,0.75604,0.09869l0.48615,5.08051  c0.04199,0.44482,0.375,0.80762,0.81445,0.88818c0.1084,0.02002,7.3584,1.31934,17.76172,1.31934  c5.2334,0,11.26465-0.32861,17.58496-1.31445c0.45117-0.0708,0.79785-0.43799,0.84082-0.89307l0.48755-5.09552  c0.24762-0.02765,0.49127-0.05084,0.73999-0.07977c0.49023-0.05713,0.86523-0.46289,0.88379-0.95557l0.35706-9.54462  c0.57507-0.05414,1.14032-0.10345,1.72498-0.16241c0.49707-0.05029,0.88086-0.45996,0.89844-0.95947l0.91895-25.93994  c0.01953-0.52881-0.37695-0.98096-0.9043-1.03125c-0.56061-0.05359-1.12073-0.10229-1.68073-0.15094l0.38763-11.37946  c0.98474,0.10962,1.96912,0.2254,2.95129,0.3551c0.04395,0.00586,0.08691,0.00879,0.13086,0.00879  c0.24902,0,0.49023-0.09277,0.67578-0.26318c0.21777-0.19971,0.33691-0.48584,0.32324-0.78174l-0.41113-9.16846  c-0.02148-0.479-0.37988-0.875-0.85449-0.94434c-0.74792-0.10938-1.48859-0.20941-2.22699-0.30695l-1.63434-8.43085  c-0.0752-0.3916-0.37695-0.7002-0.7666-0.78613c-22.23145-4.89648-40.91602-0.03125-41.08594,0.02197  c-0.35156,0.10938-0.61523,0.40283-0.68457,0.76416l-1.71063,8.82428c-1.41968,0.23676-2.20044,0.40222-2.24054,0.41107  c-0.44336,0.09619-0.76562,0.479-0.78613,0.93213l-0.38965,8.68311c-0.01367,0.29492,0.10449,0.58008,0.32129,0.78027  S24.4375,32.87793,24.72949,32.83936z M66.58496,86.81543c-15.95605,2.36182-29.86426,0.52002-33.16895,0.00977l-0.37292-3.89661  c3.26636,0.33447,9.2038,0.80627,16.76941,0.80627c5.09564,0,10.9223-0.21509,17.14673-0.83057L66.58496,86.81543z   M68.64648,80.71729C50.22852,82.75879,35,81.17432,31.36719,80.73096l-0.32605-8.32172  c3.52325,0.36304,9.40259,0.8017,17.32117,0.8017c5.82104,0,12.73822-0.23932,20.5993-0.91864L68.64648,80.71729z M71.625,70.04053  c-23.98047,2.33594-39.63184,0.54053-43.24902,0.0415l-0.85547-24.16064c4.50293-0.37988,24.5293-1.85449,44.95898-0.00391  L71.625,70.04053z M69.93188,43.69989c-16.78156-1.2901-32.82538-0.47424-39.83911,0.01923L29.68152,32.3374  c7.901-0.69324,24.1604-1.68347,40.63959-0.06427L69.93188,43.69989z M53.88214,12.08954  c-0.1778,1.99292-1.84015,3.56573-3.88214,3.56573c-2.04639,0-3.71167-1.57947-3.88342-3.57843  C48.53247,11.98993,51.14056,11.98254,53.88214,12.08954z M30.57715,13.93994c1.95721-0.49524,6.89612-1.40295,13.5274-1.76984  c0.2196,3.06042,2.77637,5.48517,5.89545,5.48517c3.1131,0,5.66638-2.41528,5.89453-5.46747  c4.289,0.25391,8.8634,0.80188,13.53613,1.79218l1.38507,7.14258c-19.01666-2.26099-34.50885-0.71765-41.69495,0.32751  L30.57715,13.93994z M25.95703,23.99365c3.85999-0.72217,22.16321-3.72516,45.75177-0.75165  c0.11176,0.04279,0.23065,0.06854,0.35468,0.06854c0.0307,0,0.06256-0.00598,0.09399-0.00885  c0.61926,0.07983,1.23969,0.16083,1.86597,0.24908l0.32129,7.15381c-21.37305-2.64355-43.42285-0.55811-48.68945,0.01562  L25.95703,23.99365z" transform="matrix(0.5 0 0 0.5 62.5 237.5)" id="L1_231" fill="#d0d5db"/><path d="M89,50.18262H59.39661c0.23529-0.46759,0.38025-0.98779,0.38025-1.5459v-2.02148c0-1.04437-0.47375-1.97119-1.2066-2.60748  c8.84058-2.43463,15.66907-8.70154,18.961-17.79291c0.11084-0.30664,0.06543-0.64844-0.12158-0.91504  c-0.1875-0.2666-0.49268-0.42578-0.81885-0.42578H51v-8.42578h6.26941c0.47119,2.52716,2.6886,4.44727,5.34924,4.44727  c3.00244,0,5.44531-2.44336,5.44531-5.44727S65.62109,10,62.61865,10c-2.66064,0-4.87805,1.92078-5.34924,4.44824H50  c-0.55225,0-1,0.44727-1,1v9.42578H23.40918c-0.32617,0-0.63135,0.15918-0.81885,0.42578  c-0.18701,0.2666-0.23242,0.6084-0.12158,0.91504c3.29193,9.09137,10.12042,15.35828,18.961,17.79291  c-0.73285,0.63629-1.2066,1.56311-1.2066,2.60748v2.02148c0,0.55811,0.14496,1.07831,0.38025,1.5459H11c-0.55225,0-1,0.44727-1,1  v9.0625c0,0.55273,0.44775,1,1,1h2.16895V78.9375H11c-0.55225,0-1,0.44727-1,1V89c0,0.55273,0.44775,1,1,1h78  c0.55225,0,1-0.44727,1-1v-9.0625c0-0.55273-0.44775-1-1-1h-2.16895V61.24512H89c0.55225,0,1-0.44727,1-1v-9.0625  C90,50.62988,89.55225,50.18262,89,50.18262z M62.61865,12c1.8999,0,3.44531,1.54688,3.44531,3.44824  c0,1.90039-1.54541,3.44727-3.44531,3.44727s-3.44531-1.54688-3.44531-3.44727C59.17334,13.54688,60.71875,12,62.61865,12z   M24.86963,26.87402h50.26074C70.8335,37.23828,61.75049,43.14746,50,43.14746S29.1665,37.23828,24.86963,26.87402z   M56.30859,45.14746c0.80957,0,1.46826,0.6582,1.46826,1.46777v2.02148c0,0.80957-0.65869,1.46777-1.46826,1.46777H43.69141  c-0.80957,0-1.46826-0.6582-1.46826-1.46777v-2.02148c0-0.80957,0.65869-1.46777,1.46826-1.46777H56.30859z M88,88H12v-7.0625h76V88  z M84.83105,78.9375H15.16895V61.24512h69.66211V78.9375z M88,59.24512H12v-7.0625h76V59.24512z" transform="matrix(0.4000000059604645 0 0 0.4000000059604645 155 330)" id="L1_232" fill="#d0d5db"/><path d="M24.60352,32.96973c0.04199,0,0.08398-0.00244,0.12598-0.00781c0.05078-0.00647,1.11487-0.13733,2.95776-0.31696  l1.70825,49.01715c0.0166,0.4834,0.37598,0.88525,0.85449,0.95508c0.02039,0.00293,0.29047,0.04083,0.76318,0.09918l0.48584,5.06879  c0.04199,0.44531,0.375,0.80762,0.81445,0.88818c0.1084,0.02002,7.3584,1.31689,17.76172,1.31689  c5.2334,0,11.26465-0.32812,17.58496-1.31201c0.45117-0.07031,0.79785-0.43799,0.84082-0.89307l0.48749-5.08575  c0.24506-0.02734,0.48615-0.05023,0.73224-0.0788c0.49121-0.05664,0.86719-0.46436,0.88379-0.9585l1.70959-49.05548  c0.98486,0.10938,1.96936,0.22491,2.95154,0.35431c0.2998,0.03955,0.58887-0.0542,0.80664-0.25439  c0.21777-0.19971,0.33691-0.48633,0.32324-0.78174l-0.41113-9.14941c-0.02148-0.479-0.37988-0.87549-0.85449-0.94482  c-0.74805-0.10913-1.48877-0.20892-2.22729-0.30615l-1.63403-8.41113c-0.07617-0.39111-0.37695-0.7002-0.7666-0.78564  c-22.23438-4.88623-40.91406-0.03076-41.08594,0.02148c-0.35156,0.10938-0.61426,0.40283-0.68457,0.76416l-1.71039,8.80432  c-1.41956,0.23621-2.20001,0.40125-2.23981,0.41003c-0.44336,0.09619-0.7666,0.479-0.78711,0.93213l-0.38965,8.66504  c-0.01367,0.29443,0.10449,0.58008,0.32129,0.78027C24.11133,32.87598,24.35352,32.96973,24.60352,32.96973z M29.68134,32.46106  c1.36255-0.11926,2.96399-0.24701,4.78253-0.36914v48.98004c-1.38336-0.12756-2.43628-0.2464-3.09961-0.32733L29.68134,32.46106z   M58.26758,81.54437V31.63373c1.73407,0.05518,3.492,0.13123,5.26855,0.23517v49.34399  C61.73517,81.35486,59.97778,81.46277,58.26758,81.54437z M56.26758,81.62805c-1.82233,0.06604-3.58356,0.10297-5.26758,0.1142  V31.52258c1.71375-0.00177,3.4743,0.01654,5.26758,0.05664V81.62805z M49,81.74359  c-1.86725-0.00836-3.62854-0.04474-5.26758-0.10034v-50.0033C45.41925,31.58801,47.17767,31.55048,49,31.5332V81.74359z   M41.73242,81.56421c-1.98859-0.09033-3.75659-0.20477-5.26855-0.32269V32.04248c0-0.02667-0.01306-0.04901-0.01514-0.07513  c1.63544-0.09698,3.40411-0.18542,5.28369-0.25812V81.56421z M66.58496,86.81836  c-15.95312,2.35791-29.86328,0.51953-33.16895,0.00928l-0.37262-3.88519c3.26788,0.33356,9.20221,0.80365,16.76227,0.80365  c5.09698,0,10.92554-0.21448,17.15344-0.82935L66.58496,86.81836z M68.63574,80.73096  c-1.04449,0.11548-2.07715,0.21777-3.09961,0.31085V31.99805c1.58832,0.11035,3.18512,0.24207,4.78479,0.39886L68.63574,80.73096z   M53.92181,12.25714c-0.1795,1.98578-1.841,3.55292-3.88177,3.55292c-2.04529,0-3.71039-1.57532-3.88239-3.56866  C48.57379,12.1557,51.18103,12.14923,53.92181,12.25714z M30.57617,14.10254c1.96094-0.49579,6.91644-1.40472,13.56934-1.76917  c0.21912,3.05585,2.77606,5.47668,5.89453,5.47668c3.11182,0,5.66443-2.40894,5.89435-5.45416  c4.27759,0.25458,8.83856,0.80139,13.49725,1.78668l1.38354,7.12256c-19.01886-2.255-34.50891-0.71527-41.69391,0.32733  L30.57617,14.10254z M25.95703,24.13428c3.86005-0.72119,22.159-3.71747,45.7522-0.74951  c0.11157,0.04266,0.23047,0.06836,0.35425,0.06836c0.03076,0,0.06177-0.0061,0.09277-0.00897  c0.61963,0.07971,1.24048,0.16058,1.86719,0.24872l0.32031,7.13428c-21.37012-2.63672-43.42285-0.55664-48.68848,0.01562  L25.95703,24.13428z" transform="matrix(0.8999999761581421 0 0 0.8999999761581421 217.5 217.5)" id="L1_233" fill="#d0d5db"/></defs><g fi:class="KUsePattern" opacity="0.1"><pattern id="pattern_L1_224" width="350" height="350" patternUnits="userSpaceOnUse"><use xlink:href="#L1_224" x="-350" y="-350"/><use xlink:href="#L1_224" x="0" y="-350"/><use xlink:href="#L1_224" x="350" y="-350"/><use xlink:href="#L1_224" x="-350" y="0"/><use xlink:href="#L1_224" x="0" y="0"/><use xlink:href="#L1_224" x="350" y="0"/><use xlink:href="#L1_224" x="-350" y="350"/><use xlink:href="#L1_224" x="0" y="350"/><use xlink:href="#L1_224" x="350" y="350"/></pattern><rect x="0" y="0" width="100%" height="100%" fill="url(#pattern_L1_224)"/></g><g fi:class="KUsePattern" opacity="0.1"><pattern id="pattern_L1_225" width="350" height="350" patternUnits="userSpaceOnUse"><use xlink:href="#L1_225" x="-350" y="-350"/><use xlink:href="#L1_225" x="0" y="-350"/><use xlink:href="#L1_225" x="350" y="-350"/><use xlink:href="#L1_225" x="-350" y="0"/><use xlink:href="#L1_225" x="0" y="0"/><use xlink:href="#L1_225" x="350" y="0"/><use xlink:href="#L1_225" x="-350" y="350"/><use xlink:href="#L1_225" x="0" y="350"/><use xlink:href="#L1_225" x="350" y="350"/></pattern><rect x="0" y="0" width="100%" height="100%" fill="url(#pattern_L1_225)"/></g><g fi:class="KUsePattern" opacity="0.1"><pattern id="pattern_L1_226" width="350" height="350" patternUnits="userSpaceOnUse"><use xlink:href="#L1_226" x="-350" y="-350"/><use xlink:href="#L1_226" x="0" y="-350"/><use xlink:href="#L1_226" x="350" y="-350"/><use xlink:href="#L1_226" x="-350" y="0"/><use xlink:href="#L1_226" x="0" y="0"/><use xlink:href="#L1_226" x="350" y="0"/><use xlink:href="#L1_226" x="-350" y="350"/><use xlink:href="#L1_226" x="0" y="350"/><use xlink:href="#L1_226" x="350" y="350"/></pattern><rect x="0" y="0" width="100%" height="100%" fill="url(#pattern_L1_226)"/></g><g fi:class="KUsePattern" opacity="0.1"><pattern id="pattern_L1_227" width="350" height="350" patternUnits="userSpaceOnUse"><use xlink:href="#L1_227" x="-350" y="-350"/><use xlink:href="#L1_227" x="0" y="-350"/><use xlink:href="#L1_227" x="350" y="-350"/><use xlink:href="#L1_227" x="-350" y="0"/><use xlink:href="#L1_227" x="0" y="0"/><use xlink:href="#L1_227" x="350" y="0"/><use xlink:href="#L1_227" x="-350" y="350"/><use xlink:href="#L1_227" x="0" y="350"/><use xlink:href="#L1_227" x="350" y="350"/></pattern><rect x="0" y="0" width="100%" height="100%" fill="url(#pattern_L1_227)"/></g><g fi:class="KUsePattern" opacity="0.1"><pattern id="pattern_L1_228" width="350" height="350" patternUnits="userSpaceOnUse"><use xlink:href="#L1_228" x="-350" y="-350"/><use xlink:href="#L1_228" x="0" y="-350"/><use xlink:href="#L1_228" x="350" y="-350"/><use xlink:href="#L1_228" x="-350" y="0"/><use xlink:href="#L1_228" x="0" y="0"/><use xlink:href="#L1_228" x="350" y="0"/><use xlink:href="#L1_228" x="-350" y="350"/><use xlink:href="#L1_228" x="0" y="350"/><use xlink:href="#L1_228" x="350" y="350"/></pattern><rect x="0" y="0" width="100%" height="100%" fill="url(#pattern_L1_228)"/></g><g fi:class="KUsePattern" opacity="0.1"><pattern id="pattern_L1_229" width="350" height="350" patternUnits="userSpaceOnUse"><use xlink:href="#L1_229" x="-350" y="-350"/><use xlink:href="#L1_229" x="0" y="-350"/><use xlink:href="#L1_229" x="350" y="-350"/><use xlink:href="#L1_229" x="-350" y="0"/><use xlink:href="#L1_229" x="0" y="0"/><use xlink:href="#L1_229" x="350" y="0"/><use xlink:href="#L1_229" x="-350" y="350"/><use xlink:href="#L1_229" x="0" y="350"/><use xlink:href="#L1_229" x="350" y="350"/></pattern><rect x="0" y="0" width="100%" height="100%" fill="url(#pattern_L1_229)"/></g><g fi:class="KUsePattern" opacity="0.1"><pattern id="pattern_L1_230" width="350" height="350" patternUnits="userSpaceOnUse"><use xlink:href="#L1_230" x="-350" y="-350"/><use xlink:href="#L1_230" x="0" y="-350"/><use xlink:href="#L1_230" x="350" y="-350"/><use xlink:href="#L1_230" x="-350" y="0"/><use xlink:href="#L1_230" x="0" y="0"/><use xlink:href="#L1_230" x="350" y="0"/><use xlink:href="#L1_230" x="-350" y="350"/><use xlink:href="#L1_230" x="0" y="350"/><use xlink:href="#L1_230" x="350" y="350"/></pattern><rect x="0" y="0" width="100%" height="100%" fill="url(#pattern_L1_230)"/></g><g fi:class="KUsePattern" opacity="0.1"><pattern id="pattern_L1_231" width="350" height="350" patternUnits="userSpaceOnUse"><use xlink:href="#L1_231" x="-350" y="-350"/><use xlink:href="#L1_231" x="0" y="-350"/><use xlink:href="#L1_231" x="350" y="-350"/><use xlink:href="#L1_231" x="-350" y="0"/><use xlink:href="#L1_231" x="0" y="0"/><use xlink:href="#L1_231" x="350" y="0"/><use xlink:href="#L1_231" x="-350" y="350"/><use xlink:href="#L1_231" x="0" y="350"/><use xlink:href="#L1_231" x="350" y="350"/></pattern><rect x="0" y="0" width="100%" height="100%" fill="url(#pattern_L1_231)"/></g><g fi:class="KUsePattern" opacity="0.1"><pattern id="pattern_L1_232" width="350" height="350" patternUnits="userSpaceOnUse"><use xlink:href="#L1_232" x="-350" y="-350"/><use xlink:href="#L1_232" x="0" y="-350"/><use xlink:href="#L1_232" x="350" y="-350"/><use xlink:href="#L1_232" x="-350" y="0"/><use xlink:href="#L1_232" x="0" y="0"/><use xlink:href="#L1_232" x="350" y="0"/><use xlink:href="#L1_232" x="-350" y="350"/><use xlink:href="#L1_232" x="0" y="350"/><use xlink:href="#L1_232" x="350" y="350"/></pattern><rect x="0" y="0" width="100%" height="100%" fill="url(#pattern_L1_232)"/></g><g fi:class="KUsePattern" opacity="0.1"><pattern id="pattern_L1_233" width="350" height="350" patternUnits="userSpaceOnUse"><use xlink:href="#L1_233" x="-350" y="-350"/><use xlink:href="#L1_233" x="0" y="-350"/><use xlink:href="#L1_233" x="350" y="-350"/><use xlink:href="#L1_233" x="-350" y="0"/><use xlink:href="#L1_233" x="0" y="0"/><use xlink:href="#L1_233" x="350" y="0"/><use xlink:href="#L1_233" x="-350" y="350"/><use xlink:href="#L1_233" x="0" y="350"/><use xlink:href="#L1_233" x="350" y="350"/></pattern><rect x="0" y="0" width="100%" height="100%" fill="url(#pattern_L1_233)"/></g></svg>