<svg xmlns="http://www.w3.org/2000/svg" xmlns:xlink="http://www.w3.org/1999/xlink" xmlns:fi="http://pattern.flaticon.com/" x="0" y="0" width="1920" height="960" viewBox="0 0 1120 560"><rect x="0px" y="0px" width="100%" height="100%" opacity="0" fill="#ffffff"/><defs><g transform="matrix(0.5 0 0 0.5 62.5 237.5)" id="L1_25"><path d="M21.47998,19.15234h2.30664c0.55225,0,1-0.44727,1-1s-0.44775-1-1-1h-2.30664c-0.55225,0-1,0.44727-1,1  S20.92773,19.15234,21.47998,19.15234z"/><path d="M27.89893,19.15234h2.30713c0.55225,0,1-0.44727,1-1s-0.44775-1-1-1h-2.30713c-0.55225,0-1,0.44727-1,1  S27.34668,19.15234,27.89893,19.15234z"/><path d="M34.31836,19.15234h2.30713c0.55225,0,1-0.44727,1-1s-0.44775-1-1-1h-2.30713c-0.55225,0-1,0.44727-1,1  S33.76611,19.15234,34.31836,19.15234z"/><path d="M40.73779,19.15234h2.30713c0.55225,0,1-0.44727,1-1s-0.44775-1-1-1h-2.30713c-0.55225,0-1,0.44727-1,1  S40.18555,19.15234,40.73779,19.15234z"/><path d="M47.15723,19.15234h2.30713c0.55225,0,1-0.44727,1-1s-0.44775-1-1-1h-2.30713c-0.55225,0-1,0.44727-1,1  S46.60498,19.15234,47.15723,19.15234z"/><path d="M28.17188,47.95898c-3.12793,0-5.67285,3.08203-5.67285,6.87109s2.54492,6.87109,5.67285,6.87109  s5.67285-3.08203,5.67285-6.87109S31.2998,47.95898,28.17188,47.95898z M24.49902,54.83008  c0-2.54486,1.48462-4.61688,3.36298-4.82953c-0.10571,0.58881-0.31732,0.98694-0.56805,1.44867  c-0.41504,0.76172-0.88477,1.625-0.88477,3.28223s0.46973,2.52051,0.88477,3.28223c0.27832,0.51263,0.50946,0.94519,0.59943,1.65015  C26,59.47125,24.49902,57.38916,24.49902,54.83008z M29.83759,59.14661c-0.15833-0.9245-0.48608-1.53516-0.78729-2.08801  c-0.35791-0.65918-0.64111-1.17969-0.64111-2.32715s0.2832-1.66797,0.64111-2.32715c0.2818-0.51715,0.58527-1.08777,0.75336-1.91528  c1.20447,0.80029,2.04108,2.43634,2.04108,4.34106C31.84473,56.71649,31.02338,58.33783,29.83759,59.14661z"/><path d="M42.625,56.36328c-1.63184,0.18555-3.22949,0.98633-4.49756,2.25488c-1.26807,1.26758-2.06885,2.86523-2.25391,4.49707  c-0.19531,1.7168,0.30469,3.26953,1.40723,4.37207c0.9458,0.94629,2.22363,1.44824,3.65234,1.44824  c0.23584,0,0.47656-0.01367,0.71973-0.04102c1.63184-0.18555,3.229-0.98633,4.49707-2.25488  c1.26855-1.26758,2.06885-2.86426,2.25439-4.49707c0.19531-1.7168-0.30469-3.26953-1.40723-4.37207  C45.89551,56.66797,44.34131,56.16797,42.625,56.36328z M37.86084,63.34082c0.13428-1.18457,0.73145-2.35938,1.68066-3.30859  c0.94971-0.94922,2.125-1.54688,3.30957-1.68164c0.16455-0.01855,0.32617-0.02832,0.48486-0.02832  c0.78064,0,1.46661,0.2384,2.00531,0.66766c-0.49396,0.34509-0.92645,0.47717-1.43256,0.62628  c-0.83154,0.24609-1.7749,0.52441-2.94629,1.69629c-1.17188,1.17188-1.4502,2.11426-1.6958,2.94727  c-0.16528,0.55933-0.30786,1.02887-0.74353,1.59155C37.99377,65.20081,37.74841,64.3291,37.86084,63.34082z M46.41699,61.91699  c-0.13428,1.18457-0.73145,2.35938-1.68115,3.30859s-2.12451,1.54688-3.30908,1.68164  c-0.40948,0.04602-0.79315,0.01501-1.159-0.05322c0.53906-0.76355,0.73895-1.4256,0.91681-2.02881  c0.2124-0.71875,0.38037-1.28711,1.19189-2.09863c0.81201-0.81152,1.37988-0.97949,2.09912-1.19141  c0.56311-0.16663,1.17963-0.35516,1.88141-0.81885C46.43201,61.09338,46.46545,61.49103,46.41699,61.91699z"/><path d="M42.33496,52.0166c1.38672,0,2.69287-0.47168,3.66064-1.43945c2.21143-2.21191,1.83154-6.19141-0.84717-8.87012  c-2.68018-2.67871-6.6582-3.05859-8.86963-0.84668c-2.21191,2.21191-1.83154,6.19141,0.84717,8.86914  C38.63281,51.23633,40.55078,52.0166,42.33496,52.0166z M39.9458,41.40625c1.2583,0,2.66553,0.5918,3.78857,1.71484  c1.79938,1.7998,2.21436,4.31506,1.03699,5.79333c-0.34143-0.49097-0.47321-0.92188-0.62195-1.42517  c-0.24561-0.83301-0.52393-1.77539-1.6958-2.94727c-1.17139-1.17188-2.11475-1.4502-2.94629-1.69629  c-0.5611-0.16534-1.03149-0.30829-1.59607-0.74646C38.47125,41.64227,39.17615,41.40625,39.9458,41.40625z M36.90747,43.84399  c0.76562,0.54175,1.4295,0.74207,2.03296,0.92065c0.71924,0.21191,1.28711,0.37988,2.09912,1.19141  c0.81152,0.81152,0.97949,1.37988,1.19189,2.09863c0.16669,0.56531,0.35553,1.18317,0.82141,1.88678  c-1.41742,0.28571-3.16534-0.27887-4.51282-1.62604C37.20599,46.98175,36.64069,45.25452,36.90747,43.84399z"/><path d="M11,86.25h46.34552l0.08759,2.78125C57.4502,89.57129,57.89258,90,58.43262,90h26.63379  c0.54004,0,0.98242-0.42871,0.99951-0.96875l0.31866-10.12598h0.45526c0.53809,0,0.97998-0.42578,0.99951-0.96387l0.61328-17.07812  c0.00977-0.27148-0.09131-0.53516-0.27979-0.73047s-0.44824-0.30566-0.71973-0.30566h-0.46655l0.22357-7.10645H89  c0.27295,0,0.53418-0.11133,0.72314-0.30957c0.18848-0.19727,0.28809-0.46289,0.27588-0.73633l-0.2793-6.13965  c-0.02441-0.5332-0.46436-0.9541-0.99902-0.9541h-1.11267l-1.0968-5.5791c-0.09229-0.46875-0.50342-0.80664-0.98145-0.80664  H60.94385V30.8252c0-2.62305-0.50488-5.18262-1.50049-7.60938l-2.16504-5.27246v-6.94238c0-0.55273-0.44775-1-1-1H14.66553  c-0.55225,0-1,0.44727-1,1v6.94238l-2.16455,5.27246C10.50488,25.6416,10,28.20215,10,30.8252V85.25  C10,85.80273,10.44775,86.25,11,86.25z M12,84.25v-8.70508h43.57458l0.08606,2.39648  c0.01953,0.53809,0.46143,0.96387,0.99951,0.96387h0.45398L57.28247,84.25H12z M84.09717,88h-24.6958l-0.28625-9.09473h25.26849  L84.09717,88z M85.875,76.90527h-28.25l-0.5415-15.07812H86.4165L85.875,76.90527z M84.9856,59.82715H58.5144l-0.22357-7.10645  h26.91833L84.9856,59.82715z M87.95361,50.7207H55.54639l0.18848-4.13965h32.03027L87.95361,50.7207z M85.56915,44.58105H57.93085  l0.86212-4.38574h25.91406L85.56915,44.58105z M57.97021,38.19531c-0.47803,0-0.88916,0.33789-0.98145,0.80664l-1.0968,5.5791  H54.7793c-0.53467,0-0.97461,0.4209-0.99902,0.9541l-0.2793,6.13965c-0.01221,0.27344,0.0874,0.53906,0.27588,0.73633  c0.18896,0.19824,0.4502,0.30957,0.72314,0.30957h1.78986l0.22357,7.10645h-0.46655c-0.27148,0-0.53125,0.11035-0.71973,0.30566  s-0.28955,0.45898-0.27979,0.73047l0.45538,12.68164H12V33.6875h46.94385v4.50781H57.97021z M13.35156,23.97559l1.97992-4.82324  h2.03571c0.55225,0,1-0.44727,1-1s-0.44775-1-1-1h-1.70166v-5.15137h39.61279v5.15137h-1.70166c-0.55225,0-1,0.44727-1,1  s0.44775,1,1,1h2.03577l1.98035,4.82324c0.89648,2.18359,1.35107,4.48828,1.35107,6.84961v0.8623H12v-0.8623  C12,28.46387,12.45459,26.15918,13.35156,23.97559z"/></g><g transform="matrix(0.4000000059604645 0 0 0.4000000059604645 242.5 67.5)" id="L1_26"><path d="M38.41211,19.36035c2.58105,0,4.68066-2.09961,4.68066-4.68018S40.99316,10,38.41211,10c-0.55273,0-1,0.44775-1,1  s0.44727,1,1,1c1.47852,0,2.68066,1.20215,2.68066,2.68018s-1.20215,2.68018-2.68066,2.68018  c-2.58008,0-4.67969,2.09961-4.67969,4.68018s2.09961,4.68018,4.67969,4.68018c0.55273,0,1-0.44775,1-1s-0.44727-1-1-1  c-1.47754,0-2.67969-1.20215-2.67969-2.68018S36.93457,19.36035,38.41211,19.36035z"/><path d="M49.56543,19.36035c2.58105,0,4.68066-2.09961,4.68066-4.68018S52.14648,10,49.56543,10c-0.55273,0-1,0.44775-1,1  s0.44727,1,1,1c1.47852,0,2.68066,1.20215,2.68066,2.68018s-1.20215,2.68018-2.68066,2.68018  c-2.58008,0-4.67969,2.09961-4.67969,4.68018s2.09961,4.68018,4.67969,4.68018c0.55273,0,1-0.44775,1-1s-0.44727-1-1-1  c-1.47754,0-2.67969-1.20215-2.67969-2.68018S48.08789,19.36035,49.56543,19.36035z"/><path d="M34.07129,89.91748C34.19629,89.97217,34.33203,90,34.46875,90h19.04004c0.13672,0,0.27246-0.02783,0.39746-0.08252  c8.00342-3.46619,14.5437-10.72656,18.77966-20.14893h7.52991c5.41504,0,9.82129-4.93359,9.82129-10.99805  s-4.40625-10.99805-9.82129-10.99805h-2.33765c0.07349-1.29974,0.11108-2.61243,0.11108-3.93604v-7.92578c0-0.55225-0.44727-1-1-1  h-66c-0.55273,0-1,0.44775-1,1v7.92578C9.98926,65.16016,19.66699,83.67871,34.07129,89.91748z M80.21582,49.77246  c4.3125,0,7.82129,4.03662,7.82129,8.99805s-3.50879,8.99805-7.82129,8.99805h-6.67407  c2.1925-5.44891,3.64062-11.54303,4.19434-17.99609H80.21582z M11.98926,36.91064h64v6.92578  c0,20.12305-9.31934,38.24219-22.68945,44.16357H34.67773c-13.36914-5.9209-22.68848-24.04004-22.68848-44.16357V36.91064z"/></g><g transform="matrix(0.20000000298023224 0 0 0.20000000298023224 252.5 340)" id="L1_27"><path d="M53.29883,13.38086c-11.94684,0-22.57678,5.71948-29.29449,14.55505c-0.0885-0.02563-0.17609-0.05505-0.27289-0.05505  H12.01514V11.02051c0-0.55273-0.44775-1-1-1s-1,0.44727-1,1v78c0,0.55273,0.44775,1,1,1s1-0.44727,1-1V71.38086h11.4082  c6.6756,9.28418,17.57562,15.34961,29.87549,15.34961c20.26758,0,36.75684-16.45215,36.75684-36.6748  S73.56641,13.38086,53.29883,13.38086z M12.01514,69.38086v-39.5h10.60992c-3.83942,5.79211-6.08258,12.72559-6.08258,20.1748  c0,7.08838,2.0318,13.70947,5.53613,19.3252H12.01514z M53.29883,84.73047c-19.16455,0-34.75635-15.55469-34.75635-34.6748  s15.5918-34.6748,34.75635-34.6748c19.16504,0,34.75684,15.55469,34.75684,34.6748S72.46387,84.73047,53.29883,84.73047z"/><path d="M69.7124,31.95312h-1.04633l-1.05768-5.46387c-0.09131-0.46973-0.50293-0.80957-0.98193-0.80957H39.97168  c-0.479,0-0.89062,0.33984-0.98193,0.80957l-1.05768,5.46387h-1.04633c-0.53467,0-0.9751,0.4209-0.99902,0.95508l-0.27051,6.03125  c-0.01221,0.27246,0.0874,0.53906,0.27637,0.73633c0.18848,0.19727,0.44971,0.30859,0.72266,0.30859h1.70007l1.10461,33.6582  c0.01758,0.53906,0.45996,0.9668,0.99951,0.9668h25.75928c0.53955,0,0.98193-0.42773,0.99951-0.9668l1.10461-33.6582h1.70007  c0.27295,0,0.53418-0.11133,0.72266-0.30859c0.18896-0.19727,0.28857-0.46387,0.27637-0.73633l-0.27051-6.03125  C70.6875,32.37402,70.24707,31.95312,69.7124,31.95312z M40.79688,27.67969h25.00439l0.82721,4.27344H39.96967L40.79688,27.67969z   M65.56866,61.70898H41.02948l-0.41937-12.77832h25.37793L65.56866,61.70898z M41.38721,72.60938l-0.29211-8.90039h24.40796  l-0.29211,8.90039H41.38721z M66.05371,46.93066H40.54443l-0.22797-6.94629h25.96521L66.05371,46.93066z M37.66113,37.98438  l0.18066-4.03125h30.91455l0.18066,4.03125H37.66113z"/></g><g transform="matrix(0.4000000059604645 0 0 0.4000000059604645 67.5 67.5)" id="L1_28"><path d="M38.77002,44.02441v2.54596c-1.3432,1.02087-5.14343,4.41272-5.42108,10.08392h-0.13409c-0.55225,0-1,0.44727-1,1V64  c0,0.55273,0.44775,1,1,1h33.57031c0.55225,0,1-0.44727,1-1v-6.3457c0-0.55273-0.44775-1-1-1h-0.13409  c-0.27765-5.6712-4.07788-9.06305-5.42108-10.08392v-2.54596c0-1.51562-1.2334-2.74902-2.74902-2.74902h-0.76501l1.80603-20.93555  c0.21875-2.6543-0.68994-5.29883-2.49365-7.25781S52.6626,10,50,10s-5.22461,1.12305-7.02832,3.08203  s-2.7124,4.60352-2.49316,7.26172l1.80585,20.93164h-0.76532C40.00342,41.27539,38.77002,42.50879,38.77002,44.02441z M65.78516,63  H34.21484v-4.3457h31.57031V63z M64.65417,56.6543H35.34595c0.29224-4.91461,3.8194-7.8808,4.75024-8.57812h19.81006  C60.84009,48.7699,64.36365,51.71478,64.65417,56.6543z M59.22998,44.02441v2.05176H40.77002v-2.05176  c0-0.41309,0.33594-0.74902,0.74902-0.74902h16.96191C58.89404,43.27539,59.22998,43.61133,59.22998,44.02441z M42.47119,20.17578  c-0.17578-2.12988,0.5249-4.16797,1.97168-5.73926C45.89014,12.86523,47.86377,12,50,12s4.10986,0.86523,5.55713,2.43652  c1.44678,1.57129,2.14746,3.60938,1.97217,5.73535l-1.82037,21.10352H44.29138L42.47119,20.17578z"/><path d="M29.9165,70.0918V89c0,0.55273,0.44775,1,1,1H69.0835c0.55225,0,1-0.44727,1-1V70.0918c0-0.55273-0.44775-1-1-1H30.9165  C30.36426,69.0918,29.9165,69.53906,29.9165,70.0918z M31.9165,71.0918H68.0835V88H31.9165V71.0918z"/></g><g transform="matrix(0.8693332206306952 0.23293713442154176 -0.23293713442154176 0.8693332206306952 318.18019544617886 294.8864837210492)" id="L1_29"><path d="M28.98486,38.84277c0,3.59741,2.3512,6.65125,5.5946,7.71368c-0.04114,3.49017,0.16449,20.28571,7.5,29.88855  c-0.90228,0.70203-1.49402,1.78613-1.49402,3.01593c0,0.72986,0.21576,1.40564,0.57086,1.98694  c-1.60162,0.44458-2.78717,1.90027-2.78717,3.64197V89c0,0.55273,0.44775,1,1,1h21.26172c0.55225,0,1-0.44727,1-1v-3.91016  c0-1.7417-1.18555-3.19739-2.78717-3.64197c0.3551-0.5813,0.57086-1.25708,0.57086-1.98694c0-1.2298-0.59174-2.3139-1.49402-3.01593  c7.58557-9.93024,7.54669-27.55316,7.49536-30.19849c3.28619-1.38696,5.59924-4.6441,5.59924-8.43207  c0-4.69336-3.54834-8.57227-8.1001-9.08887c0.80957-1.2207,1.25-2.66016,1.25-4.17383c0-3.67773-2.67676-6.43262-7.34424-7.55762  c-5.61426-1.35352-5.87354-5.5332-5.88477-6.00586C50.92334,10.44531,50.479,10,49.93604,10  c-4.21826,0-7.65039,3.43555-7.65039,7.6582c0,0.58691,0.06689,1.16504,0.19922,1.73047  c-4.24121,0.0918-7.66357,3.57422-7.66357,7.8418c0,1.2666,0.30811,2.50391,0.88623,3.61426  C31.89453,31.50488,28.98486,34.83984,28.98486,38.84277z M57.41455,79.46094c0,1.01172-0.82129,1.83398-1.83105,1.83398H44.4165  c-1.00977,0-1.83105-0.82227-1.83105-1.83398s0.82129-1.83398,1.83105-1.83398H55.5835  C56.59326,77.62695,57.41455,78.44922,57.41455,79.46094z M59.63086,85.08984V88H40.36914v-2.91016  c0-0.98926,0.80518-1.79492,1.79443-1.79492h2.25293H55.5835h2.25293C58.82568,83.29492,59.63086,84.10059,59.63086,85.08984z   M56.02686,75.62695H55.5835H44.4165h-0.44336c-6.92523-8.60028-7.3891-24.65118-7.39185-28.69202  c0.17047,0.01074,0.33978,0.026,0.51294,0.026h24.78369c0.52612,0,1.03876-0.05457,1.54077-0.14044  C63.42609,50.64789,63.02991,66.92975,56.02686,75.62695z M37.09424,32.72559c0.09033,0,0.17871,0.00684,0.26758,0.0127  l0.1084,0.00684c0.40234,0.01562,0.78174-0.19531,0.95898-0.55859s0.11914-0.79688-0.14746-1.09961  c-0.94189-1.07031-1.46045-2.44043-1.46045-3.85645c0-3.22266,2.61768-5.84375,5.83545-5.84375  c0.35205,0,0.71924,0.03516,1.09082,0.10547c0.37256,0.07129,0.74805-0.07227,0.97754-0.37207  c0.22949-0.29785,0.27295-0.69922,0.11133-1.03906c-0.36523-0.77051-0.55078-1.58496-0.55078-2.42285  c0-2.82129,2.07324-5.16699,4.77393-5.58984c0.36133,1.85156,1.77393,5.53906,7.29248,6.86914  c1.74756,0.42188,5.81299,1.8125,5.81299,5.61426c0,1.74902-0.80127,3.36621-2.19922,4.43555  c-0.36377,0.27832-0.4917,0.76855-0.31055,1.18945s0.62988,0.66895,1.07715,0.5918c0.42578-0.06836,0.80029-0.10156,1.14551-0.10156  c3.93555,0,7.13721,3.20605,7.13721,7.14746c0,3.94043-3.20166,7.14648-7.13721,7.14648H37.09424  c-3.36865,0-6.10938-2.74414-6.10938-6.11816C30.98486,35.46973,33.72559,32.72559,37.09424,32.72559z"/><path d="M54.53076,23.44629c1,0.25293,2.19141,0.80176,2.19141,1.97949c0,0.55273,0.44775,1,1,1s1-0.44727,1-1  c0-1.89453-1.34863-3.32324-3.7002-3.91895c-3.8252-0.96777-5.05127-3.10645-5.10156-3.19727  c-0.17676-0.31738-0.51367-0.51855-0.87695-0.51855c-0.55225,0-1,0.44727-1,1c0,0.18457,0.0498,0.35742,0.13721,0.50586  C48.48047,19.8291,50.09619,22.32324,54.53076,23.44629z"/><path d="M50.59814,51.88965c-1.89551,0.21484-3.75146,1.14648-5.22656,2.62207c-1.47559,1.47559-2.40674,3.33105-2.62207,5.22656  c-0.2251,1.98047,0.34912,3.76855,1.6167,5.03516c1.08691,1.08789,2.55762,1.66406,4.2041,1.66406  c0.27295,0,0.55029-0.01562,0.83154-0.04785c1.89551-0.21484,3.75146-1.14551,5.22656-2.62109  c1.47559-1.47461,2.40674-3.33105,2.62207-5.22656c0.2251-1.98047-0.34912-3.76855-1.6167-5.03613  C54.3667,52.23926,52.57861,51.66016,50.59814,51.88965z M44.73682,59.96387c0.16455-1.44727,0.89209-2.88184,2.04883-4.03809  c1.15674-1.15723,2.59082-1.88477,4.03809-2.04883c0.20264-0.02344,0.40186-0.03516,0.59717-0.03516  c1.06055,0,1.98944,0.34784,2.68457,0.98602c-0.70148,0.54211-1.29224,0.7218-1.95166,0.91632  c-0.96631,0.28516-2.06152,0.6084-3.41797,1.96582c-1.35693,1.35645-1.68018,2.45117-1.96582,3.41797  c-0.2113,0.71588-0.40332,1.35107-1.06409,2.13562C44.93793,62.44,44.5874,61.27875,44.73682,59.96387z M55.26318,58.31641  c-0.16455,1.44727-0.89209,2.88184-2.04883,4.03809s-2.59082,1.88379-4.03809,2.04883  c-0.61682,0.06848-1.19385,0.0163-1.72534-0.12219c0.75659-0.98474,1.01282-1.82684,1.23755-2.58679  c0.24902-0.84473,0.46436-1.57324,1.46143-2.57031s1.72607-1.21289,2.57031-1.46191  c0.71637-0.21143,1.50397-0.44598,2.41595-1.10504C55.28204,57.09766,55.33466,57.68738,55.26318,58.31641z"/></g><g transform="matrix(0.4000000059604645 0 0 0.4000000059604645 155 330)" id="L1_30"><path d="M35.30078,19.5127h2.42383c0.55273,0,1-0.44727,1-1s-0.44727-1-1-1h-2.42383c-0.55273,0-1,0.44727-1,1  S34.74805,19.5127,35.30078,19.5127z"/><path d="M42.04492,19.5127h2.42285c0.55273,0,1-0.44727,1-1s-0.44727-1-1-1h-2.42285c-0.55273,0-1,0.44727-1,1  S41.49219,19.5127,42.04492,19.5127z"/><path d="M48.78809,19.5127h2.42383c0.55273,0,1-0.44727,1-1s-0.44727-1-1-1h-2.42383c-0.55273,0-1,0.44727-1,1  S48.23535,19.5127,48.78809,19.5127z"/><path d="M55.53223,19.5127h2.42285c0.55273,0,1-0.44727,1-1s-0.44727-1-1-1h-2.42285c-0.55273,0-1,0.44727-1,1  S54.97949,19.5127,55.53223,19.5127z"/><path d="M62.27539,19.5127h2.42383c0.55273,0,1-0.44727,1-1s-0.44727-1-1-1h-2.42383c-0.55273,0-1,0.44727-1,1  S61.72266,19.5127,62.27539,19.5127z"/><path d="M42.33105,49.87598c-3.25781,0-5.9082,3.21582-5.9082,7.16797s2.65039,7.16699,5.9082,7.16699  c3.25879,0,5.90918-3.21484,5.90918-7.16699S45.58984,49.87598,42.33105,49.87598z M38.42285,57.04395  c0-2.73065,1.61462-4.95032,3.64545-5.13287c-0.10718,0.66443-0.33923,1.09735-0.61517,1.60455  c-0.43262,0.79492-0.92285,1.69629-0.92285,3.42383s0.49023,2.62891,0.92285,3.42383  c0.30377,0.55835,0.55341,1.02875,0.64246,1.81616C40.05176,62.01489,38.42285,59.78601,38.42285,57.04395z M44.0462,61.664  c-0.15948-1.01007-0.51361-1.66296-0.83624-2.2558c-0.37988-0.69824-0.67969-1.25-0.67969-2.46875s0.2998-1.77051,0.67969-2.46875  c0.30219-0.55524,0.62878-1.16925,0.80048-2.07355c1.3136,0.83386,2.2298,2.59503,2.2298,4.64679  C46.24023,59.07581,45.34003,60.82062,44.0462,61.664z"/><path d="M62.07129,60.16895c-2.30371-2.30371-6.45215-1.90527-9.24609,0.88965c-2.79492,2.79395-3.19336,6.94238-0.88965,9.24609  c0.98438,0.98438,2.31445,1.50684,3.80176,1.50684c0.24609,0,0.49609-0.01465,0.75-0.04297  c1.70312-0.19434,3.37012-1.03027,4.69434-2.35449C63.97559,66.62012,64.375,62.47266,62.07129,60.16895z M54.23926,62.47266  c1.18945-1.18945,2.67969-1.81543,4.01562-1.81543c0.83209,0,1.59552,0.25824,2.19653,0.76062  c-0.54773,0.39667-1.0188,0.53864-1.57446,0.70227c-0.86816,0.25684-1.85254,0.54785-3.07324,1.76953  c-1.22168,1.2207-1.5127,2.20508-1.76953,3.07324c-0.17963,0.60992-0.33539,1.11884-0.82916,1.73853  C51.87622,67.1394,52.30017,64.41174,54.23926,62.47266z M59.76758,68c-1.00586,1.00586-2.25098,1.63867-3.50586,1.78125  c-0.46643,0.0531-0.90027,0.01569-1.30975-0.06958c0.59857-0.8244,0.81-1.53528,1.00116-2.1814  c0.22461-0.7627,0.40234-1.36426,1.26465-2.22656s1.46387-1.04004,2.22656-1.26465c0.60614-0.17932,1.27124-0.38275,2.03156-0.90051  C61.81537,64.65686,61.21826,66.54932,59.76758,68z"/><path d="M57.20898,54.03809c1.44434,0,2.80371-0.49121,3.81055-1.49805c2.30371-2.30371,1.90527-6.45215-0.88965-9.24609  c-2.79395-2.79395-6.94141-3.19434-9.24609-0.88965c-2.30371,2.30371-1.90527,6.45215,0.88965,9.24609  C53.34668,53.22363,55.34863,54.03809,57.20898,54.03809z M54.7002,42.89258c1.33496,0,2.82617,0.62695,4.01562,1.81543  c1.93042,1.93042,2.35791,4.64154,1.05084,6.20703c-0.39355-0.54553-0.53546-1.01544-0.69928-1.56934  c-0.25684-0.86816-0.54688-1.85254-1.76855-3.07422s-2.20605-1.51172-3.07422-1.76855  c-0.61047-0.17999-1.12073-0.33612-1.74243-0.83246C53.08606,43.15594,53.85742,42.89258,54.7002,42.89258z M51.47168,45.41748  c0.82684,0.60126,1.53912,0.81287,2.18652,1.00439c0.7627,0.22461,1.36426,0.40234,2.22656,1.26367  c0.86133,0.8623,1.03906,1.46387,1.26465,2.22656c0.17944,0.60645,0.38251,1.27191,0.90057,2.03308  c-1.5188,0.3396-3.41235-0.25873-4.86249-1.70886C51.75037,48.79919,51.15289,46.92883,51.47168,45.41748z"/><path d="M74.70801,30.2832c0-1.69629-0.16699-3.39844-0.49805-5.06055l-1.35254-6.82031v-7.40137c0-0.55273-0.44727-1-1-1H28.14258  c-0.55273,0-1,0.44727-1,1v7.40137l-1.35254,6.81934c-0.33105,1.66309-0.49805,3.36523-0.49805,5.06152V89c0,0.55273,0.44727,1,1,1  h47.41602c0.55273,0,1-0.44727,1-1V30.2832z M27.29199,34.7832h45.41602v41.9707H27.29199V34.7832z M27.75098,25.61133  l1.2099-6.09863h2.02057c0.55273,0,1-0.44727,1-1s-0.44727-1-1-1h-1.83887v-5.51172h41.71484v5.51172h-1.83887  c-0.55273,0-1,0.44727-1,1s0.44727,1,1,1h2.02051l1.20996,6.09961c0.30469,1.53418,0.45898,3.10547,0.45898,4.6709v2.5H27.29199  v-2.5C27.29199,28.71777,27.44629,27.14648,27.75098,25.61133z M27.29199,88v-9.24609h45.41602V88H27.29199z"/></g><g transform="matrix(0.6761480668876146 -0.18117332848640108 0.18117332848640108 0.6761480668876146 132.13392963525277 150.25126248389287)" id="L1_31"><path d="M89,12c0.55273,0,1-0.44775,1-1s-0.44727-1-1-1H11c-0.55273,0-1,0.44775-1,1s0.44727,1,1,1h17.63867v6.16699H11  c-0.55273,0-1,0.44775-1,1V89c0,0.55225,0.44727,1,1,1h78c0.55273,0,1-0.44775,1-1V19.16699c0-0.55225-0.44727-1-1-1H72.13867V12H89  z M88,88H12V20.16699h76V88z M70.13867,18.16699h-39.5V12h39.5V18.16699z"/><path d="M68.38422,52.05566c0.02228-0.47955,0.04645-0.95862,0.04645-1.44434v-3.92529c0-0.55225-0.44727-1-1-1h-37.0459  c-0.55273,0-1,0.44775-1,1v3.92529c0,10.77734,5.55469,20.14062,13.82324,23.2998c0.11328,0.04346,0.23438,0.06592,0.35645,0.06592  h10.68652c0.12207,0,0.24316-0.02246,0.35645-0.06592c4.51483-1.72498,8.21094-5.30798,10.64508-9.95264h3.98969  c3.28125,0,5.95117-2.66992,5.95117-5.95166c0-3.28125-2.66992-5.95117-5.95117-5.95117H68.38422z M31.38477,47.68604h35.0459  v2.92529c0,1.88623-0.19592,3.73376-0.55707,5.51123H31.94183c-0.36115-1.77747-0.55707-3.625-0.55707-5.51123V47.68604z   M54.06348,71.97705H43.75195c-5.33636-2.11462-9.47589-7.37604-11.31744-13.85449h32.94647  C63.53943,64.60101,59.39984,69.86243,54.06348,71.97705z M73.19336,58.00684c0,2.17871-1.77246,3.95166-3.95117,3.95166h-3.03802  c1.02094-2.43079,1.70691-5.09802,2.02228-7.90283h1.01575C71.4209,54.05566,73.19336,55.82812,73.19336,58.00684z"/><path d="M46.24023,43.15674c0.55273,0,1-0.44775,1-1s-0.44727-1-1-1c-0.75,0-1.36035-0.61035-1.36035-1.36035  s0.61035-1.35986,1.36035-1.35986c1.85254,0,3.36035-1.50732,3.36035-3.36035c0-1.85254-1.50781-3.35986-3.36035-3.35986  c-0.55273,0-1,0.44775-1,1s0.44727,1,1,1c0.75,0,1.36035,0.60986,1.36035,1.35986s-0.61035,1.36035-1.36035,1.36035  c-1.85254,0-3.36035,1.50732-3.36035,3.35986C42.87988,41.64941,44.3877,43.15674,46.24023,43.15674z"/><path d="M53.39258,43.15674c0.55273,0,1-0.44775,1-1s-0.44727-1-1-1c-0.75,0-1.36035-0.61035-1.36035-1.36035  s0.61035-1.35986,1.36035-1.35986c1.85254,0,3.36035-1.50732,3.36035-3.36035c0-1.85254-1.50781-3.35986-3.36035-3.35986  c-0.55273,0-1,0.44775-1,1s0.44727,1,1,1c0.75,0,1.36035,0.60986,1.36035,1.35986s-0.61035,1.36035-1.36035,1.36035  c-1.85254,0-3.36035,1.50732-3.36035,3.35986C50.03223,41.64941,51.54004,43.15674,53.39258,43.15674z"/></g><path d="M23.4043,31.61572h3.28418l1.78027,57.41504C28.48535,89.5708,28.92822,90,29.46826,90h41.06348  c0.54004,0,0.98291-0.4292,0.99951-0.96924l1.78027-57.41504h3.28418c0.27295,0,0.53418-0.11182,0.72266-0.30908  c0.18896-0.19727,0.28857-0.46289,0.27637-0.73584l-0.43115-9.61475c-0.02393-0.53418-0.46436-0.95508-0.99902-0.95508h-2.1582  l-1.77881-9.19092C72.13623,10.33984,71.72461,10,71.24561,10H28.75439c-0.479,0-0.89062,0.33984-0.98193,0.81006l-1.77881,9.19092  h-2.1582c-0.53467,0-0.9751,0.4209-0.99902,0.95508l-0.43115,9.61475c-0.01221,0.27295,0.0874,0.53857,0.27637,0.73584  C22.87012,31.50391,23.13135,31.61572,23.4043,31.61572z M70.1012,70.62402H29.8988l-0.76721-24.74707h41.73682L70.1012,70.62402z   M30.4375,88l-0.47668-15.37598h40.07837L69.5625,88H30.4375z M70.93042,43.87695H29.06958l-0.38013-12.26123h42.62109  L70.93042,43.87695z M29.57959,12h40.84082l1.54852,8.00098H28.03107L29.57959,12z M24.7915,22.00098H75.2085l0.34131,7.61475  H24.4502L24.7915,22.00098z" transform="matrix(0.699999988079071 0 0 0.699999988079071 315 140)" id="L1_32"/><g transform="matrix(0.8999999761581421 0 0 0.8999999761581421 217.5 217.5)" id="L1_33"><path d="M15.8457,88.18457c2.41602,2.41895,6.35059,2.41504,8.7666,0l1.07812-1.0791  c3.79785,0.88086,26.18457,5.58398,48.625,0.00586l1.07227,1.07324c1.20801,1.20898,2.7959,1.8125,4.38281,1.8125  c1.58789,0,3.17578-0.60352,4.38379-1.8125c1.1709-1.1709,1.81543-2.72754,1.81543-4.38379  c0-1.59668-0.59961-3.10156-1.69238-4.25684l-1.71777-3.55078L80.5874,41.8811c1.34546-0.85754,2.24561-2.35382,2.24561-4.0647  v-5.81934c0-2.66211-2.16504-4.82715-4.82617-4.82715h-0.07581c-0.2395-4.85742-4.25458-8.73926-9.17029-8.73926  c-1.28613,0-2.55176,0.27148-3.72168,0.79199C63.37305,13.80664,58.31543,10,52.5459,10  c-4.56152,0-8.72363,2.34375-11.10156,6.18457c-1.93164-1.07129-4.09766-1.63281-6.3252-1.63281  c-7.05536,0-12.80768,5.62091-13.05017,12.61816h-0.07581c-2.66113,0-4.82617,2.16504-4.82617,4.82715v5.81934  c0,1.71088,0.90015,3.20715,2.24561,4.0647l-1.97217,34.11206l-1.71777,3.55078c-1.09277,1.15527-1.69238,2.66016-1.69238,4.25684  C14.03027,85.45703,14.6748,87.01367,15.8457,88.18457z M35.11914,16.55176c2.19043,0,4.31152,0.6416,6.13281,1.85547  c0.2373,0.1582,0.53027,0.20801,0.80664,0.13574c0.27539-0.07129,0.50781-0.25781,0.6377-0.51172  C44.60547,14.31152,48.37891,12,52.5459,12c5.26562,0,9.83105,3.74316,10.85742,8.90137  c0.06445,0.32324,0.2832,0.59375,0.58691,0.72363c0.30273,0.13184,0.65039,0.10156,0.92871-0.07422  c1.15625-0.73242,2.48438-1.12012,3.8418-1.12012c3.81317,0,6.93365,2.98474,7.17029,6.73926H24.06897  C24.3103,21.27625,29.1673,16.55176,35.11914,16.55176z M19.16699,31.99707c0-1.55859,1.26758-2.82715,2.82617-2.82715h56.01367  c1.55859,0,2.82617,1.26855,2.82617,2.82715v5.81934c0,1.55859-1.26758,2.82715-2.82617,2.82715H21.99316  c-1.55859,0-2.82617-1.26855-2.82617-2.82715V31.99707z M17.25977,80.83203c0.0791-0.0791,0.14453-0.1709,0.19336-0.27148  l1.875-3.875c0.05664-0.11816,0.09082-0.24707,0.09766-0.37793l1.94916-33.72656c0.20459,0.02655,0.40656,0.0625,0.61823,0.0625  h56.01367c0.21167,0,0.41364-0.03595,0.61823-0.0625l1.94916,33.72656c0.00684,0.13086,0.04102,0.25977,0.09766,0.37793l1.875,3.875  c0.04883,0.10059,0.11426,0.19238,0.19336,0.27148c0.79297,0.79297,1.22949,1.84766,1.22949,2.96875  c0,1.12207-0.43652,2.17676-1.22949,2.96973S80.89258,88,79.77148,88c-1.12207,0-2.17676-0.43652-2.96973-1.22949l-1.47363-1.47461  c-0.24902-0.24902-0.61426-0.35059-0.95508-0.26172c-24.17871,6.19434-48.50195,0.06348-48.74414,0.00098  c-0.34668-0.08984-0.70801,0.01074-0.95703,0.26074l-1.47363,1.47461C22.40527,87.56348,21.35059,88,20.22852,88  c-1.12109,0-2.17578-0.43652-2.96875-1.22949s-1.22949-1.84766-1.22949-2.96973C16.03027,82.67969,16.4668,81.625,17.25977,80.83203  z"/><path d="M35.45215,75.01367h29.0957c0.55273,0,1-0.44727,1-1v-9.6875c0-0.55273-0.44727-1-1-1h-29.0957c-0.55273,0-1,0.44727-1,1  v9.6875C34.45215,74.56641,34.89941,75.01367,35.45215,75.01367z M36.45215,65.32617h27.0957v7.6875h-27.0957V65.32617z"/><path d="M35.45215,58.50879h29.0957c0.55273,0,1-0.44727,1-1s-0.44727-1-1-1h-29.0957c-0.55273,0-1,0.44727-1,1  S34.89941,58.50879,35.45215,58.50879z"/><path d="M35.45215,51.9248h29.0957c0.55273,0,1-0.44727,1-1s-0.44727-1-1-1h-29.0957c-0.55273,0-1,0.44727-1,1  S34.89941,51.9248,35.45215,51.9248z"/></g><g transform="matrix(0.20000000298023224 0 0 0.20000000298023224 77.5 340)" id="L1_34"><path d="M86.52344,40.26855c-3.96686-2.84937-9.99738-1.48749-11.92029-0.9472c0.17761-4.05066,0.08636-6.60529,0.08435-6.65387  c-0.02148-0.53662-0.46191-0.96045-0.99902-0.96045H11.02832c-0.53711,0-0.97754,0.42383-0.99902,0.96045  c-0.00391,0.09424-0.35254,9.58252,1.60449,21.2583c1.81543,10.8252,6.04199,25.81934,15.87012,35.77686  C27.69238,89.89307,27.94824,90,28.21582,90H56.5c0.26758,0,0.52344-0.10693,0.71191-0.29736  c4.76471-4.82739,8.20404-10.84003,10.69916-16.98608c0.92456-0.50549,1.84015-1.00037,2.73541-1.48218  C81.45898,65.4082,90,60.80615,90,48.40967C90,44.66504,88.83008,41.92578,86.52344,40.26855z M12.00879,33.70703h60.69922  c0.01813,1.82776-0.01617,6.11945-0.55103,11.66797H12.55914C12.02448,39.82648,11.99036,35.53479,12.00879,33.70703z M56.0791,88  H28.63672C18.03033,77.01379,14.16046,59.69397,12.76837,47.375h59.17932C70.5553,59.69397,66.68549,77.01379,56.0791,88z   M69.69727,69.47363c-0.22327,0.12024-0.45697,0.24829-0.68219,0.36975c2.00232-5.59021,3.26855-11.15698,4.06696-15.9176  c0.78485-4.68024,1.19562-8.99451,1.40997-12.50763c0.04492-0.00848,0.08929-0.00183,0.13397-0.01678  c0.06836-0.02295,6.90234-2.26318,10.73438,0.49414C87.11133,43.15625,88,45.34814,88,48.40967  C88,59.6123,80.32324,63.74854,69.69727,69.47363z"/><path d="M37.61914,19.36035c2.58008,0,4.67969-2.09961,4.67969-4.68018S40.19922,10,37.61914,10c-0.55273,0-1,0.44775-1,1  s0.44727,1,1,1c1.47754,0,2.67969,1.20215,2.67969,2.68018s-1.20215,2.68018-2.67969,2.68018  c-2.58105,0-4.68066,2.09961-4.68066,4.68018s2.09961,4.68018,4.68066,4.68018c0.55273,0,1-0.44775,1-1s-0.44727-1-1-1  c-1.47852,0-2.68066-1.20215-2.68066-2.68018S36.14062,19.36035,37.61914,19.36035z"/><path d="M48.77246,19.36035c2.58008,0,4.67969-2.09961,4.67969-4.68018S51.35254,10,48.77246,10c-0.55273,0-1,0.44775-1,1  s0.44727,1,1,1c1.47754,0,2.67969,1.20215,2.67969,2.68018s-1.20215,2.68018-2.67969,2.68018  c-2.58105,0-4.68066,2.09961-4.68066,4.68018s2.09961,4.68018,4.68066,4.68018c0.55273,0,1-0.44775,1-1s-0.44727-1-1-1  c-1.47852,0-2.68066-1.20215-2.68066-2.68018S47.29395,19.36035,48.77246,19.36035z"/></g></defs><g fi:class="KUsePattern"><pattern id="pattern_L1_25" width="350" height="350" patternUnits="userSpaceOnUse"><use xlink:href="#L1_25" x="-350" y="-350"/><use xlink:href="#L1_25" x="0" y="-350"/><use xlink:href="#L1_25" x="350" y="-350"/><use xlink:href="#L1_25" x="-350" y="0"/><use xlink:href="#L1_25" x="0" y="0"/><use xlink:href="#L1_25" x="350" y="0"/><use xlink:href="#L1_25" x="-350" y="350"/><use xlink:href="#L1_25" x="0" y="350"/><use xlink:href="#L1_25" x="350" y="350"/></pattern><rect x="0" y="0" width="100%" height="100%" fill="url(#pattern_L1_25)"/></g><g fi:class="KUsePattern"><pattern id="pattern_L1_26" width="350" height="350" patternUnits="userSpaceOnUse"><use xlink:href="#L1_26" x="-350" y="-350"/><use xlink:href="#L1_26" x="0" y="-350"/><use xlink:href="#L1_26" x="350" y="-350"/><use xlink:href="#L1_26" x="-350" y="0"/><use xlink:href="#L1_26" x="0" y="0"/><use xlink:href="#L1_26" x="350" y="0"/><use xlink:href="#L1_26" x="-350" y="350"/><use xlink:href="#L1_26" x="0" y="350"/><use xlink:href="#L1_26" x="350" y="350"/></pattern><rect x="0" y="0" width="100%" height="100%" fill="url(#pattern_L1_26)"/></g><g fi:class="KUsePattern"><pattern id="pattern_L1_27" width="350" height="350" patternUnits="userSpaceOnUse"><use xlink:href="#L1_27" x="-350" y="-350"/><use xlink:href="#L1_27" x="0" y="-350"/><use xlink:href="#L1_27" x="350" y="-350"/><use xlink:href="#L1_27" x="-350" y="0"/><use xlink:href="#L1_27" x="0" y="0"/><use xlink:href="#L1_27" x="350" y="0"/><use xlink:href="#L1_27" x="-350" y="350"/><use xlink:href="#L1_27" x="0" y="350"/><use xlink:href="#L1_27" x="350" y="350"/></pattern><rect x="0" y="0" width="100%" height="100%" fill="url(#pattern_L1_27)"/></g><g fi:class="KUsePattern"><pattern id="pattern_L1_28" width="350" height="350" patternUnits="userSpaceOnUse"><use xlink:href="#L1_28" x="-350" y="-350"/><use xlink:href="#L1_28" x="0" y="-350"/><use xlink:href="#L1_28" x="350" y="-350"/><use xlink:href="#L1_28" x="-350" y="0"/><use xlink:href="#L1_28" x="0" y="0"/><use xlink:href="#L1_28" x="350" y="0"/><use xlink:href="#L1_28" x="-350" y="350"/><use xlink:href="#L1_28" x="0" y="350"/><use xlink:href="#L1_28" x="350" y="350"/></pattern><rect x="0" y="0" width="100%" height="100%" fill="url(#pattern_L1_28)"/></g><g fi:class="KUsePattern"><pattern id="pattern_L1_29" width="350" height="350" patternUnits="userSpaceOnUse"><use xlink:href="#L1_29" x="-350" y="-350"/><use xlink:href="#L1_29" x="0" y="-350"/><use xlink:href="#L1_29" x="350" y="-350"/><use xlink:href="#L1_29" x="-350" y="0"/><use xlink:href="#L1_29" x="0" y="0"/><use xlink:href="#L1_29" x="350" y="0"/><use xlink:href="#L1_29" x="-350" y="350"/><use xlink:href="#L1_29" x="0" y="350"/><use xlink:href="#L1_29" x="350" y="350"/></pattern><rect x="0" y="0" width="100%" height="100%" fill="url(#pattern_L1_29)"/></g><g fi:class="KUsePattern"><pattern id="pattern_L1_30" width="350" height="350" patternUnits="userSpaceOnUse"><use xlink:href="#L1_30" x="-350" y="-350"/><use xlink:href="#L1_30" x="0" y="-350"/><use xlink:href="#L1_30" x="350" y="-350"/><use xlink:href="#L1_30" x="-350" y="0"/><use xlink:href="#L1_30" x="0" y="0"/><use xlink:href="#L1_30" x="350" y="0"/><use xlink:href="#L1_30" x="-350" y="350"/><use xlink:href="#L1_30" x="0" y="350"/><use xlink:href="#L1_30" x="350" y="350"/></pattern><rect x="0" y="0" width="100%" height="100%" fill="url(#pattern_L1_30)"/></g><g fi:class="KUsePattern"><pattern id="pattern_L1_31" width="350" height="350" patternUnits="userSpaceOnUse"><use xlink:href="#L1_31" x="-350" y="-350"/><use xlink:href="#L1_31" x="0" y="-350"/><use xlink:href="#L1_31" x="350" y="-350"/><use xlink:href="#L1_31" x="-350" y="0"/><use xlink:href="#L1_31" x="0" y="0"/><use xlink:href="#L1_31" x="350" y="0"/><use xlink:href="#L1_31" x="-350" y="350"/><use xlink:href="#L1_31" x="0" y="350"/><use xlink:href="#L1_31" x="350" y="350"/></pattern><rect x="0" y="0" width="100%" height="100%" fill="url(#pattern_L1_31)"/></g><g fi:class="KUsePattern"><pattern id="pattern_L1_32" width="350" height="350" patternUnits="userSpaceOnUse"><use xlink:href="#L1_32" x="-350" y="-350"/><use xlink:href="#L1_32" x="0" y="-350"/><use xlink:href="#L1_32" x="350" y="-350"/><use xlink:href="#L1_32" x="-350" y="0"/><use xlink:href="#L1_32" x="0" y="0"/><use xlink:href="#L1_32" x="350" y="0"/><use xlink:href="#L1_32" x="-350" y="350"/><use xlink:href="#L1_32" x="0" y="350"/><use xlink:href="#L1_32" x="350" y="350"/></pattern><rect x="0" y="0" width="100%" height="100%" fill="url(#pattern_L1_32)"/></g><g fi:class="KUsePattern"><pattern id="pattern_L1_33" width="350" height="350" patternUnits="userSpaceOnUse"><use xlink:href="#L1_33" x="-350" y="-350"/><use xlink:href="#L1_33" x="0" y="-350"/><use xlink:href="#L1_33" x="350" y="-350"/><use xlink:href="#L1_33" x="-350" y="0"/><use xlink:href="#L1_33" x="0" y="0"/><use xlink:href="#L1_33" x="350" y="0"/><use xlink:href="#L1_33" x="-350" y="350"/><use xlink:href="#L1_33" x="0" y="350"/><use xlink:href="#L1_33" x="350" y="350"/></pattern><rect x="0" y="0" width="100%" height="100%" fill="url(#pattern_L1_33)"/></g><g fi:class="KUsePattern"><pattern id="pattern_L1_34" width="350" height="350" patternUnits="userSpaceOnUse"><use xlink:href="#L1_34" x="-350" y="-350"/><use xlink:href="#L1_34" x="0" y="-350"/><use xlink:href="#L1_34" x="350" y="-350"/><use xlink:href="#L1_34" x="-350" y="0"/><use xlink:href="#L1_34" x="0" y="0"/><use xlink:href="#L1_34" x="350" y="0"/><use xlink:href="#L1_34" x="-350" y="350"/><use xlink:href="#L1_34" x="0" y="350"/><use xlink:href="#L1_34" x="350" y="350"/></pattern><rect x="0" y="0" width="100%" height="100%" fill="url(#pattern_L1_34)"/></g></svg>