<svg xmlns="http://www.w3.org/2000/svg" xmlns:xlink="http://www.w3.org/1999/xlink" xmlns:fi="http://pattern.flaticon.com/" x="0" y="0" width="1920" height="1080" viewBox="0 0 1920 1080"><rect x="0px" y="0px" width="100%" height="100%" opacity="0" fill="#131eff"/><defs><g transform="matrix(0.3333333432674408 0 0 0.3333333432674408 77.5 340)" id="L1_4719" fill="#000000"><path d="m43.2 38.143c.7929882-1.115878 1.6762911-2.1647375 2.641-3.136.661169-.6247278 1.4241257-1.1320129 2.256-1.5l.493-.224c2.5662599-.935537 4.7806456-2.6413825 6.34-4.884 2.1281791-3.1741444 1.9732126-7.3570293-.384-10.365-2.025-2.549-4.981-3.657-8.784-3.334l1.231-10.584c0-.011 0-.02 0-.031 0-.029.009-.056.009-.085-.002-3.712-13.014-4-17.002-4s-17 .288-17 4c0 .029.008.056.009.085v.031l3.31 28.35c.0588038.5035108.4850674.8833667.992.884.0391093.0001613.0781889-.0021768.117-.007.2635269-.0308197.5040035-.1651034.6684884-.3732884s.2394932-.4732037.2085116-.7367116l-2.094-17.918c3.737 1.529 11.036 1.685 13.789 1.685s10.053-.156 13.79-1.686l-1.933 16.563v.024l-1.85 15.832c0 .016.005.03 0 .045-.094.191-.917.856-3.43 1.449-.4531305.1103596-.7717779.5166248-.771.983.0027517.5503311.449662.9950069 1 .995.1099569.0005338.2191962-.0177291.323-.054 3.138-.752 4.714-1.779 4.842-3.126 0-.021.016-.038.018-.059l.2-1.7c.6244354.2709343 1.1487937.7299227 1.5 1.313.3496824.6154275.4079343 1.3543836.159 2.017-.6 1.706-2.756 2.929-6.412 3.638-.815.155-1.542.273-2.223.361-.5236532.0666367-.9053248.5288197-.8717382 1.0556261.0335865.5268065.4708623.9367774.9987382.9363739.0434508-.0001739.0868557-.0028449.13-.008.72-.094 1.485-.218 2.343-.381 4.47-.866 7.062-2.482 7.922-4.939.441472-1.205986.3318135-2.5449162-.3-3.663-.6747596-1.1361365-1.7418016-1.9862134-3-2.39l.559-4.794zm9.78-18.857c1.8170561 2.3467543 1.9191437 5.5958009.253 8.052-1.444 2.3-3.678 3.313-5.525 4.151l-.442.2c-1.0321731.4573886-1.9790136 1.0870375-2.8 1.862-.3630615.3464457-.7084965.7109046-1.035 1.092l.366-3.132c.8059353-.6522114 1.6884599-1.2036213 2.628-1.642l.462-.209c1.647-.741 3.513-1.582 4.649-3.386 1.2034114-1.7415095 1.1538205-4.0585736-.123-5.747-1.668-2.1-4.208-2.061-6.13-1.757l.237-2.031c3.333-.383 5.787.443 7.46 2.547zm-7.939 1.564c2.2-.408 3.8-.343 4.809.926.7260751 1.0294948.7236702 2.4050502-.006 3.432-.815 1.294-2.254 1.942-3.778 2.629l-.479.217c-.5070027.2379888-1.0010296.5026937-1.48.793zm-15.041-18.85c9.013 0 13.9 1.228 14.886 2-.986.772-5.873 2-14.886 2s-13.9-1.228-14.886-2c.986-.772 5.873-2 14.886-2zm14.07 9.906c-.57.749-5.17 2.094-14.07 2.094s-13.5-1.345-14.07-2.094l-.659-5.646c3.909 1.581 11.782 1.74 14.729 1.74s10.82-.159 14.73-1.74l-.659 5.64z" id="L1_4717" fill="#d0d5db"/><path d="m20.937 59.98c3.411886-.1186705 6.6420148-1.5672038 9-4.036 2.4760926-2.3347419 3.9353279-5.5491539 4.063-8.95.0628624-2.084304-.7223157-4.1049827-2.176-5.6-3.516-3.489-10.057-2.643-14.583 1.884-2.4761654 2.3352018-3.9356856 5.5498093-4.064 8.951-.0987854 2.0862627.6872224 4.1173785 2.1646568 5.5936706 1.4774344 1.476292 3.5091575 2.2607285 5.5953432 2.1603294zm7.588-5.454c-3.751 3.753-9.026 4.6-11.759 1.885-.053-.054-.09-.12-.141-.176.6407543-.3677089 1.3568915-.5845336 2.094-.634 3.1262489-.2437772 5.6113504-2.7242146 5.861-5.85.1240408-2.2433493 1.9183303-4.0328965 4.162-4.151 1.011459-.0850872 1.9905635-.3978946 2.864-.915.2689689.7387105.4024405 1.5198917.394 2.306-.1430559 2.8658726-1.3881127 5.5655858-3.475 7.535zm-9.872-9.835c1.9791297-2.09612 4.6951823-3.3413808 7.575-3.473 1.5512304-.0511655 3.0582519.5215315 4.184 1.59.053.053.09.119.141.175-.6406833.3680264-1.3568178.5851923-2.094.635-3.125859.2442445-5.610417 2.7245627-5.86 5.85-.1226573 2.2452442-1.9184674 4.0367416-4.164 4.154-1.0115203.0847796-1.990692.3976085-2.864.915-.2697618-.7391934-.4032544-1.5211756-.394-2.308.1432755-2.866894 1.3886439-5.5675805 3.476-7.538z" id="L1_4718" fill="#d0d5db"/><path d="m17.092 39.6c.1670712.3216365.4950978.5276965.8573743.5385861.3622764.0108897.7020875-.1750958.8881758-.4861167.1860882-.3110208.1893211-.698386.0084499-1.0124694-1.931-3.524-5.09-5.633-8.453-5.644-.60218905.0009386-1.20245386.0680073-1.79.2-4.995 1.124-8.613 6.717-8.603 13.304-.01 7.433 4.651 13.489 10.393 13.5.6060733.0034567 1.2103786-.0657027 1.8-.206.0742511-.0186808.1463185-.0451613.215-.079.3465839-.1730567.5620378-.530718.553-.918-.0301659-1.6866772-.6573114-3.3080433-1.77-4.576-.8930664-.9653043-1.38072148-2.2370743-1.362-3.552-.01491939-1.3191372.4715203-2.5947457 1.361-3.569 2.3535365-2.7384686 2.3535365-6.7855314 0-9.524-.641573-.7268243-1.0848485-1.6068311-1.287-2.555.166-.014.3283333-.021.487-.021 2.66.009 5.103 1.687 6.702 4.6zm-6.135 2.73c.0144134 1.3202666-.4739455 2.5965779-1.366 3.57-2.35283566 2.7391074-2.35283566 6.7858926 0 9.525.6425222.7273402 1.0858938 1.6085713 1.287 2.558-.156.013-.316.019-.48.019-4.641-.011-8.406-5.169-8.398-11.502-.008-5.057 2.489-9.545 5.961-11 .26912744 1.210585.83200847 2.336347 1.639 3.278.8912478.9660786 1.3770787 2.2377598 1.357 3.552z" id="L1_4720" fill="#d0d5db"/></g><g transform="matrix(0.6666666865348816 0 0 0.6666666865348816 67.5 67.5)" id="L1_4722" fill="#000000"><path d="m6 40c0 5.607 10.542 10 24 10s24-4.393 24-10v-18h2c2.209139 0 4-1.790861 4-4s-1.790861-4-4-4h-2v-4c0-5.607-10.533-10-24-10s-24 4.393-24 10v4h-2c-2.209139 0-4 1.790861-4 4s1.790861 4 4 4h2zm46 0c0 3.784-9.035 8-22 8s-22-4.216-22-8v-25.9c.139.134.279.268.432.4.445.379.877.781 1.289 1.2 1.331675 1.2996887 2.3939444 2.8492564 3.126 4.56.168273.4137046.358887.8179664.571 1.211 2.823 5.184 9.331 8.529 16.582 8.529s13.747-3.345 16.585-8.534c.1-.185.2-.391.3-.608.089-.186.177-.378.256-.578.740145-1.7139052 1.8039058-3.2689721 3.133-4.58.381-.389.8-.781 1.294-1.2.153-.13.293-.264.432-.4zm-5.225-23.193c-.01.016-.023.031-.033.046-.262.386-.495.778-.715 1.172-.056.1-.11.2-.164.3-.206.391-.4.784-.562 1.182l-.011.024c-.065.164-.147.311-.221.467h-30.137c-.076-.158-.16-.309-.226-.478-.5321953-1.2624368-1.233624-2.4466234-2.085-3.52h34.739c-.206.267-.399.536-.585.807zm-16.775 11.193c-5.794 0-11.021-2.314-13.851-6h27.7c-2.849 3.69-8.069 6-13.849 6zm26-12c1.1045695 0 2 .8954305 2 2s-.8954305 2-2 2h-2v-4zm-25.98-14c12.953 0 21.98 4.216 21.98 8-.107206 1.1996509-.7398704 2.290338-1.728 2.979-.413.35-.775.687-1.118 1.021h-38.332c-.355-.349-.714-.7-1.093-1.021-.98830035-.6886487-1.62128772-1.7792614-1.729-2.979 0-3.784 9.035-8 22.02-8zm-26.02 18c-1.1045695 0-2-.8954305-2-2s.8954305-2 2-2h2v4z" id="L1_4721" fill="#d0d5db"/><path d="m15.508 41.69c-1.2858075-.4124224-2.4778166-1.0740078-3.508-1.947v-9.743c0-.5522847-.4477153-1-1-1s-1 .4477153-1 1v10c.0000242.1095025.0179263.2182665.053.322.494 1.452 3.473 2.744 4.732 3.234.5152817.1996509 1.0948491-.0562183 1.2945-.5715s-.0562183-1.0948491-.5715-1.2945z" id="L1_4723" fill="#d0d5db"/><circle cx="11" cy="26" r="1" id="L1_4733" fill="#d0d5db"/></g><g transform="matrix(0.6666666865348816 0 0 0.6666666865348816 242.5 67.5)" id="L1_4729" fill="#000000"><path d="m49.5 39c8.643 0 10.288-8.617 10.445-9.59.1842202-1.0982147-.124641-2.221821-.8443241-3.0715673s-1.7771178-1.3393568-2.8906759-1.3384327h-6.4c.1228932-.8008811.1863997-1.6097529.19-2.42v-4.58c0-1.6568542-1.3431458-3-3-3h-34c-1.6568542 0-3 1.3431458-3 3v4.58c.0056295 1.6205665.2450976 3.2318394.711 4.784.1568489.5296411.7133589.8318489 1.243.675s.8318489-.7133589.675-1.243c-.3676065-1.2348729-.5736553-2.5121733-.613-3.8h4.984c.5522847 0 1-.4477153 1-1s-.4477153-1-1-1h-5v-2.996c0-.5522847.4477153-1 1-1h34c.5522847 0 1 .4477153 1 1v3h-25c-.5522847 0-1 .4477153-1 1s.4477153 1 1 1h24.982c-.111421 3.1466281-1.1943354 6.1815831-3.1 8.688-1.768 2.348-4.1 6.544-5.4 13.312h-2.642c-.5522847 0-1 .4477153-1 1s.4477153 1 1 1h13.21c.524442.0005512.9494488.425558.95.95v.11c.0014865.2903863-.1286855.5658067-.354.749l-3.729 2.98c-.1703708.136185-.381889.2105689-.6.211h-12.477c-.5522847 0-1 .4477153-1 1s.4477153 1 1 1h12.48c.670172-.0017662 1.3200478-.230139 1.844-.648l3.736-2.983c.6987158-.5623441 1.1035387-1.4121041 1.1-2.309v-.11c-.0016536-1.6285546-1.3214454-2.9483464-2.95-2.95h-8.525c.982-2.764 3.158-6 7.975-6zm-3.018-6.113c1.3235865-1.765667 2.3076168-3.7618718 2.902-5.887h6.826c.5294089-.0007473 1.0318987.2332841 1.372.639.3375916.3985754.4808247.9264498.391 1.441-.214 1.32-1.63 7.92-8.473 7.92-2.2889956-.0650477-4.5277243.6784808-6.323 2.1.8013694-2.2172906 1.9141913-4.3092611 3.305-6.213z" id="L1_4724" fill="#d0d5db"/><path d="m20.937 56.98c3.411886-.1186705 6.6420148-1.5672038 9-4.036 2.4760926-2.3347419 3.9353279-5.5491539 4.063-8.95.0628624-2.084304-.7223157-4.1049827-2.176-5.6-3.513-3.489-10.057-2.644-14.583 1.884-2.4761654 2.3352018-3.9356856 5.5498093-4.064 8.951-.0987854 2.0862627.6872224 4.1173785 2.1646568 5.5936706 1.4774344 1.476292 3.5091575 2.2607285 5.5953432 2.1603294zm7.588-5.454c-3.751 3.752-9.026 4.6-11.759 1.885-.053-.054-.09-.12-.141-.176.6407543-.3677089 1.3568915-.5845336 2.094-.634 3.1262489-.2437772 5.6113504-2.7242146 5.861-5.85.1240408-2.2433493 1.9183303-4.0328965 4.162-4.151 1.011459-.0850872 1.9905635-.3978946 2.864-.915.2689689.7387105.4024405 1.5198917.394 2.306-.1430559 2.8658726-1.3881127 5.5655858-3.475 7.535zm-9.872-9.835c1.9793785-2.0957729 4.695283-3.3409657 7.575-3.473 1.5512304-.0511655 3.0582519.5215315 4.184 1.59.053.053.09.119.141.175-.6406833.3680264-1.3568178.5851923-2.094.635-3.125859.2442445-5.610417 2.7245627-5.86 5.85-.1226573 2.2452442-1.9184674 4.0367416-4.164 4.154-1.0116089.0843338-1.9908782.3971939-2.864.915-.2697618-.7391934-.4032544-1.5211756-.394-2.308.1432755-2.866894 1.3886439-5.5675805 3.476-7.538z" id="L1_4725" fill="#d0d5db"/><path d="m17.092 36.6c.1670712.3216365.4950978.5276965.8573743.5385861.3622764.0108897.7020875-.1750958.8881758-.4861167.1860882-.3110208.1893211-.698386.0084499-1.0124694-1.931-3.524-5.09-5.633-8.453-5.644-.60218905.0009386-1.20245386.0680073-1.79.2-4.995 1.124-8.613 6.717-8.603 13.304-.01 7.433 4.651 13.489 10.393 13.5.6061675.0030523 1.2105037-.0667821 1.8-.208.4591753-.1108204.7781838-.5278249.765-1-.0301659-1.6866772-.6573114-3.3080433-1.77-4.576-.8930664-.9653043-1.38072148-2.2370743-1.362-3.552-.01283129-1.3178226.4746141-2.5914703 1.364-3.564 2.3535365-2.7384686 2.3535365-6.7855314 0-9.524-.641573-.7268243-1.0848485-1.6068311-1.287-2.555.166-.014.3283333-.021.487-.021 2.66.009 5.103 1.687 6.702 4.6zm-6.135 2.73c.0144134 1.3202666-.4739455 2.5965779-1.366 3.57-2.35183892 2.7390976-2.35183892 6.7849024 0 9.524.6429412.7274428 1.0863591 1.6091107 1.287 2.559-.156.013-.315.019-.479.019-4.642-.011-8.407-5.169-8.399-11.502-.008-5.057 2.489-9.545 5.961-11 .26912744 1.210585.83200847 2.336347 1.639 3.278.8912478.9660786 1.3770787 2.2377598 1.357 3.552z" id="L1_4726" fill="#d0d5db"/><path d="m24.676 3.568c.8159492-.60413994 1.3051142-1.55291303 1.324-2.568 0-.55228475-.4477153-1-1-1s-1 .44771525-1 1c0 .457-.2.653-.675 1.094-.8168414.60394119-1.306491 1.55330701-1.325 2.569.0182651 1.01607186.5074633 1.96601781 1.324 2.571.481.441.676.638.676 1.1s-.2.657-.676 1.1c-.814922.6041191-1.3038915 1.5517744-1.324 2.566 0 .5522847.4477153 1 1 1s1-.4477153 1-1c0-.459.2-.656.676-1.1.8153895-.6050627 1.3043598-1.55382748 1.324-2.569-.0185694-1.01599519-.5077024-1.96581467-1.324-2.571-.476-.441-.676-.638-.676-1.097s.2-.654.676-1.095z" id="L1_4727" fill="#d0d5db"/><path d="m30.676 3.568c.8159492-.60413994 1.3051142-1.55291303 1.324-2.568 0-.55228475-.4477153-1-1-1s-1 .44771525-1 1c0 .457-.2.653-.675 1.094-.8168414.60394119-1.306491 1.55330701-1.325 2.569.0182651 1.01607186.5074633 1.96601781 1.324 2.571.481.441.676.638.676 1.1s-.2.657-.676 1.1c-.814922.6041191-1.3038915 1.5517744-1.324 2.566 0 .5522847.4477153 1 1 1s1-.4477153 1-1c0-.459.2-.656.676-1.1.8153895-.6050627 1.3043598-1.55382748 1.324-2.569-.0185694-1.01599519-.5077024-1.96581467-1.324-2.571-.476-.441-.676-.638-.676-1.097s.2-.654.676-1.095z" id="L1_4728" fill="#d0d5db"/><path d="m36.676 3.568c.8159492-.60413994 1.3051142-1.55291303 1.324-2.568 0-.55228475-.4477153-1-1-1s-1 .44771525-1 1c0 .457-.2.653-.675 1.094-.8168414.60394119-1.306491 1.55330701-1.325 2.569.0182651 1.01607186.5074633 1.96601781 1.324 2.571.481.441.676.638.676 1.1s-.2.657-.676 1.1c-.814922.6041191-1.3038915 1.5517744-1.324 2.566 0 .5522847.4477153 1 1 1s1-.4477153 1-1c0-.459.2-.656.676-1.1.8153895-.6050627 1.3043598-1.55382748 1.324-2.569-.0185694-1.01599519-.5077024-1.96581467-1.324-2.571-.476-.441-.676-.638-.676-1.097s.2-.654.676-1.095z" id="L1_4730" fill="#d0d5db"/></g><g transform="matrix(0.6666666865348816 0 0 0.6666666865348816 155 330)" id="L1_4738" fill="#000000"><path d="m34.3 3.046c-.2531484-.07953925-.5275305-.05520425-.7627289.06764659s-.4119269.33414378-.4912711.58735341l-4.38 13.95c-.1482045.4741308.0740997.9851748.522 1.2 6.7133771 3.2044974 10.9391268 10.0320643 10.8125867 17.4699553s-4.5820906 14.1177638-11.4005867 17.0920447c-.3645881.1591192-.6001929.5192018-.6.917v4.67c0 .5522847.4477153 1 1 1s1-.4477153 1-1v-4.026c7.1787688-3.4042489 11.8216958-10.5683751 11.9969207-18.5114808s-4.1472579-15.3050088-11.1689207-19.0225192l4.126-13.14c.079581-.25301642.0553842-.52728414-.0672668-.76245895-.122651-.2351748-.3337076-.41198936-.5867332-.49154105z" id="L1_4731" fill="#d0d5db"/><path d="m0 36c-.0040419 8.1125698 4.66855206 15.5007196 12 18.974v4.026c0 .5522847.4477153 1 1 1s1-.4477153 1-1v-4.67c.0001929-.3977982-.2354119-.7578808-.6-.917-6.81781368-2.9747368-11.27265774-9.6544279-11.39897885-17.0918794-.12632112-7.4374515 4.099117-14.2645726 10.81197885-17.4691206.4479003-.2148252.6702045-.7258692.522-1.2l-4.381-13.952c-.10717968-.34083137-.38804916-.59859287-.73680762-.67618824-.34875847-.07759536-.71242121.036764-.954.3-.24157879.26323601-.32437206.63535687-.21719238.97618824l4.126 13.14c-6.85442869 3.6607242-11.14541628 10.7893251-11.172 18.56z" id="L1_4732" fill="#d0d5db"/><path d="m8.259 44.984c0 .013-.008.026-.011.039-.28172882.9069308-.11586239 1.8937667.44688172 2.6587593s1.45543758 1.2171598 2.40511828 1.2182407c.3114084-.0006125.6204575-.0540368.914-.158.4547285-.1361087.8675686-.3851889 1.2-.724l4.786-4.776v6.758c-.003859.4644925.1041863.9230848.315 1.337.5049769 1.020692 1.5462256 1.6656069 2.685 1.663 1.6568542 0 3-1.3431458 3-3v-6.758l4.783 4.775c.3323731.339106.7452041.5885247 1.2.725.2935425.1039632.6025916.1573875.914.158.949363-.000847 1.8418687-.4526431 2.4046128-1.217241.562744-.7645979.7287981-1.7510624.4473872-2.657759 0-.014-.007-.027-.011-.041-.1354199-.4548035-.3842073-.8677286-.723-1.2l-4.772-4.784h6.757c.4710855.0037227.9359296-.1078537 1.354-.325.2798064-.1398146.5343052-.3253656.753-.549.5752473-.5571583.8978456-1.3251808.893-2.126.0036158-1.1331652-.635346-2.1704609-1.649-2.677-.4173764-.2159011-.8811041-.3267701-1.351-.323h-6.758l4.773-4.782c.3401619-.3317113.590046-.7447429.726-1.2.1051124-.2946544.1588925-.6051585.159-.918-.0016319-.9498222-.4543022-1.8424088-1.2196421-2.4049209-.7653399-.562512-1.7523608-.7280743-2.6593579-.4460791l-.036.009c-.4547285.1361087-.8675686.3851889-1.2.724l-4.785 4.776v-6.758c.0032264-.4709098-.1079599-.9355587-.324-1.354-.1404051-.280001-.326258-.5347885-.55-.754-.5579289-.5739985-1.3255361-.8960613-2.126-.892-1.1339752-.0037161-2.1720587.6356411-2.679 1.65-.2141465.4175866-.3242686.8807169-.321 1.35v6.758l-4.783-4.775c-.3323731-.339106-.7452041-.5885247-1.2-.725l-.036-.008c-.9071374-.2836401-1.8950997-.1189467-2.66117471.4436181-.76607497.5625647-1.21893568 1.4559351-1.21982529 2.4063819.00026282.3103753.05335437.6184415.157.911.13541994.4548035.38420734.8677286.723 1.2l4.777 4.789h-6.757c-.46453214-.0042136-.92320768.1038513-1.337.315-1.02036026.5053417-1.66513253 1.5463601-1.663 2.685 0 1.6568542 1.34314575 3 3 3h6.758l-4.773 4.782c-.34045109.3322728-.59035506.7460256-.726 1.202zm7.741-8.984c0-2.7614237 2.2385763-5 5-5s5 2.2385763 5 5-2.2385763 5-5 5c-2.7600532-.0033061-4.9966939-2.2399468-5-5zm5.9 14.426c-.0523921.1070891-.1235114.2039468-.21.286-.2339752.2143014-.554282.3076485-.8667543.2525985-.3124724-.05505-.5815937-.2522399-.7282457-.5335985-.0662063-.133817-.0988132-.2817494-.095-.431v-7.08c.6624.1066667 1.3376.1066667 2 0v7.08c.0014525.1479803-.0328533.2941228-.1.426zm9.7-5.226c.0862201.0854857.1542517.1875331.2.3.0072132.0339964.0169058.0674191.029.1.1181679.3498558.0296415.7364336-.229 1-.2462432.2601799-.6198179.3561976-.961.247-.0446204-.0174755-.0903964-.0318432-.137-.043-.1153215-.0447893-.2201705-.1128731-.308-.2l-5.012-5c.5379779-.403275 1.0154837-.8814542 1.418-1.42zm3.4-10.2c.1533417-.003789.305223.0305733.442.1.2943174.1436782.4989701.4231165.5471336.7470708.0481634.3239544-.0663444.6508434-.3061336.8739292-.0750678.071971-.1607305.1320023-.254.178-.1326489.0680795-.2799112.1027497-.429.101h-7.08c.1066667-.6624.1066667-1.3376 0-2zm-4.8-9.6c.0851981-.0865687.187322-.1546512.3-.2.033-.008.067-.018.1-.029.3503428-.1188582.7377781-.0289733 1 .232.1894315.1839325.29745.4359755.3.7.0000086.0882206-.0162639.1756853-.048.258-.0179265.0448025-.0323041.0909445-.043.138-.0467147.1157135-.1172407.2203101-.207.307l-5 5.013c-.4025899-.5381918-.8800922-1.0160308-1.418-1.419zm-10.1-3.843c.1462309-.292026.4258498-.4942444.7489823-.5416584s.6490578.0659514.8730177.3036584c.0716868.0731408.1308142.1576085.175.25.0689755.1331143.1043368.2810825.103.431v7.08c-.6624-.1066667-1.3376-.1066667-2 0v-7.08c-.0031725-.1536.031152-.3056574.1-.443zm-9.7 5.243c-.0862201-.0854857-.1542517-.1875331-.2-.3-.0110454-.0491475-.0260957-.0973084-.045-.144-.0338915-.081234-.0525356-.1680141-.055-.256.00255-.2640245.1105685-.5160675.3-.7.2625759-.2603329.6496213-.3501274 1-.232.032.01.065.02.1.027.1144912.0452571.218596.1132995.306.2l5.012 5c-.538048.4035808-1.0155572.8821002-1.418 1.421zm-3.821 10.1c-.10722923-.0535607-.20460757-.1249038-.288-.211-.18567742-.1812096-.29056546-.4295528-.291-.689.00271399-.3844647.22432295-.7337608.571-.9.13273685-.067733.27999464-.1020589.429-.1h7.08c-.1066667.6624-.1066667 1.3376 0 2h-7.08c-.1472596.0031178-.29308338-.0294781-.425-.095zm3.585 8.7c.0117019-.0326243.021059-.0660426.028-.1.0477668-.1128502.1178343-.2148903.206-.3l5-5.013c.4030301.5360679.8805118 1.011866 1.418 1.413l-5.013 5c-.0851981.0865687-.187322.1546512-.3.2-.0487355.0113642-.0965392.0264073-.143.045-.3405102.1090213-.7133768.0138626-.96-.245-.2613188-.2619526-.3526271-.6488521-.236-1z" id="L1_4736" fill="#d0d5db"/><circle cx="21" cy="59" r="1" id="L1_4734" fill="#d0d5db"/><circle cx="19" cy="56" r="1" id="L1_4735" fill="#d0d5db"/><circle cx="23" cy="56" r="1" id="L1_4741" fill="#d0d5db"/><path d="m16.1 3.1c-3.48 3.468-4.111 8.5-1.406 11.214 1.1624096 1.1165101 2.7238219 1.7205443 4.335 1.677 2.6066384-.0912264 5.0735609-1.2010004 6.871-3.091 3.479-3.468 4.11-8.5 1.405-11.213s-7.741-2.068-11.205 1.413zm1.412 1.41c1.4211769-1.51477156 3.3753731-2.41800465 5.45-2.519 1.0204486-.02497149 2.0135158.33160557 2.785 1-.370871.15288079-.761931.25123526-1.161.292-1.1829486.08443377-2.2941285.59876349-3.124 1.446-.84924.83113151-1.3656037 1.9438739-1.452 3.129-.0720724 1.56025998-1.3198159 2.8093032-2.88 2.883-.6773168.068103-1.3366597.2585196-1.946.562-.596-2.018.249-4.721 2.328-6.793zm6.978 6.978c-2.627 2.636-6.277 3.292-8.242 1.526.3730023-.154349.7664402-.253719 1.168-.295 1.1829486-.0844338 2.2941285-.5987635 3.124-1.446.8489448-.8319453 1.3646168-1.94544105 1.45-3.131.0720724-1.56025998 1.3198159-2.80930322 2.88-2.883.6771257-.06716151 1.3364597-.2565591 1.946-.559.597 2.015-.249 4.717-2.326 6.788z" id="L1_4737" fill="#d0d5db"/><path d="m54 3h-6c-1.1045695 0-2 .8954305-2 2v39h-2c-.7595491-.0046521-1.4554332.4236885-1.7934187 1.1039107-.3379854.6802223-.2590547 1.493549.2034187 2.0960893l6.992 9.011c.3784465.5002749.9707177.7927042 1.598.789.6236025.0033894 1.2125104-.28662 1.59-.783l7-9.02.007-.009c.4551899-.6037378.5289099-1.4132828.1902599-2.0893104-.3386499-.6760276-1.0311595-1.1017368-1.7872599-1.0986896h-2v-39c0-1.1045695-.8954305-2-2-2zm1 43 3.005-.024-7.015 9.015-6.99-8.991h3c.5522847 0 1-.4477153 1-1v-40h6v40c0 .5522847.4477153 1 1 1z" id="L1_4739" fill="#d0d5db"/></g><g transform="matrix(1.1269134256214692 -0.3019555423350627 0.3019555423350627 1.1269134256214692 135.00757535272442 149.912106389791)" id="L1_4761" fill="#000000"><path d="m15.634 35c-2.354 0-3.231-.307-4.026-.873-1.1008169-.8202171-1.9712364-1.9107388-2.527-3.166-.25572264-.4655993-.83084946-.6500091-1.30963751-.4199249-.47878806.2300843-.69413056.7943586-.49036249 1.2849249.70005928 1.5617477 1.79249732 2.9156681 3.171 3.93 1.269.907 2.674 1.244 5.182 1.244.5522847 0 1-.4477153 1-1s-.4477153-1-1-1z" id="L1_4740" fill="#d0d5db"/><path d="m59.745 14c.4856312-1.644948.289601-3.4160667-.544-4.915-1.4640315-2.56696746-4.5617754-3.70952947-7.342-2.708l-3.867 1.45c.0053333-.98133333.008-1.95333333.008-2.916v-2.911c0-1.1045695-.8954305-2-2-2h-44c-1.1045695 0-2 .8954305-2 2 .021 10.6.431 18.118 1.254 22.99.91 5.382 2.372 10.803 6.855 14.01h-7.109c-.55228475 0-1 .4477153-1 1s.44771525 1 1 1h14.359.187.2 16.217.386 14.651c.5522847 0 1-.4477153 1-1s-.4477153-1-1-1h-7.106c4.2-3 5.745-7.943 6.672-12.977.4661678-1.3269813 1.2443407-2.5225348 2.269-3.486 1.1538299-.9197473 2.4797766-1.59972 3.9-2 1.0663672-.3490171 2.1000081-.79105 3.089-1.321 1.9289792-1.1699112 3.3331914-3.0378967 3.921-5.216zm-13.745-12v2.916c0 1.4-.007 2.825-.026 4.261v.037c-.0106667.924-.0293333 1.8526667-.056 2.786h-43.75c-.1-2.963-.16-6.285-.167-10zm-43.753 12h43.593c-.1362029 3.5700563-.4912024 7.1284009-1.063 10.655-.075.444-.156.894-.24 1.345h-41.07c-.085-.451-.165-.9-.24-1.345-.53514172-3.5293986-.86237267-7.0872003-.98-10.655zm36.469 23.385c-2.232 1.59-4.595 1.666-7.716 1.6h-14.019c-3.1.07-5.462-.005-7.694-1.6-3.129-2.23-4.554-5.775-5.402-9.385h40.234c-.848 3.61-2.274 7.155-5.403 9.385zm8.769-16.322c-.077.07-.143.153-.218.226.4224126-3.7599289.6560392-7.5386727.7-11.322l4.6-1.722c1.8702362-.65414136 3.9402681.12775828 4.911 1.855.5587499 1.0384673.6793587 2.2571557.335 3.385-.4505493 1.6625093-1.5152282 3.0920882-2.979 4-.888083.47151-1.8155973.8646663-2.772 1.175-1.6739053.4796666-3.2316604 1.2975136-4.577 2.403z" id="L1_4762" fill="#d0d5db"/><circle cx="6" cy="23" r="1" id="L1_4742" fill="#d0d5db"/><circle cx="9" cy="20" r="1" id="L1_4743" fill="#d0d5db"/><circle cx="12" cy="23" r="1" id="L1_4744" fill="#d0d5db"/><circle cx="15" cy="20" r="1" id="L1_4745" fill="#d0d5db"/><circle cx="18" cy="23" r="1" id="L1_4746" fill="#d0d5db"/><circle cx="21" cy="20" r="1" id="L1_4747" fill="#d0d5db"/><circle cx="24" cy="23" r="1" id="L1_4748" fill="#d0d5db"/><circle cx="27" cy="20" r="1" id="L1_4749" fill="#d0d5db"/><circle cx="30" cy="23" r="1" id="L1_4750" fill="#d0d5db"/><circle cx="33" cy="20" r="1" id="L1_4751" fill="#d0d5db"/><circle cx="36" cy="23" r="1" id="L1_4752" fill="#d0d5db"/><circle cx="39" cy="20" r="1" id="L1_4753" fill="#d0d5db"/><circle cx="42" cy="17" r="1" id="L1_4754" fill="#d0d5db"/><circle cx="6" cy="17" r="1" id="L1_4755" fill="#d0d5db"/><circle cx="12" cy="17" r="1" id="L1_4756" fill="#d0d5db"/><circle cx="18" cy="17" r="1" id="L1_4757" fill="#d0d5db"/><circle cx="24" cy="17" r="1" id="L1_4758" fill="#d0d5db"/><circle cx="30" cy="17" r="1" id="L1_4759" fill="#d0d5db"/><circle cx="36" cy="17" r="1" id="L1_4760" fill="#d0d5db"/><circle cx="42" cy="23" r="1" id="Oval" fill="#d0d5db"/></g><g transform="matrix(0.8196721076965332 0 0 0.8196721076965332 62.5 237.50000051355573)" id="L1_4765" fill="#000000"><path d="m17.044 31.569h.042c.2794409-.0115256.5412856-.1395466.722-.353l2.384-2.816c.2322226-.2727723.3012829-.6487136.1811665-.9862104-.1201164-.3374969-.4111609-.5852755-.7635-.65-.352339-.0647246-.7124439.0634381-.9446665.3362104l-1.682 1.99-1.5-1.505c-.2527654-.25348-.6215602-.3528564-.967463-.2606951s-.6163627.3618588-.7095.7075001c-.0931374.3456412.0051976.7147151.257963.968195l2.273 2.273c.1870004.18865.4413738.2951486.707.296z" id="L1_4763" fill="#d0d5db"/><path d="m17.123 37h.191c1.2957941-.0552938 2.5095508-.6494836 3.348-1.639l4.407-5.208 13.931-8v6.084c-2.5479798 1.823845-4.9386745 3.8579592-7.147 6.081-5.04 5.039-9.932 11.7-9.5 15.229.0570083.7072041.4228698 1.3533156 1 1.766 1.947 1.672 9.522 7.687 17.647 7.687 4.1178186.013562 8.0586987-1.6728539 10.892-4.661 4.0382566-3.8833275 5.6346991-9.6612761 4.163-15.067.7594174-.461354 1.4639387-1.0075257 2.1-1.628 1.283417-1.2476477 2.1955703-2.8268672 2.635-4.562.638961-2.6301725-.1795011-5.4011151-2.145-7.262-1.2334136-1.3334383-3.0369564-1.9858153-4.838-1.75-1.6797715.3147324-3.2160494 1.1551853-4.387 2.4-.218-.269-.408-.5-.561-.673-.0231249-.0267901-.0478359-.052169-.074-.076-.0505971-.0733501-.1057033-.1434853-.165-.21-.779-.78-2-.93-3.617-.47v-6.041c.0473586-2.1083127-.9832804-4.0953274-2.734-5.271-2.2810351-1.4660186-5.0546272-1.95626-7.7-1.361l-9-9c-1.7115844-1.69232043-4.4293205-1.80577595-6.276-.262l-1.393 1.175-2.628-2.629c-1.7110459-1.68992148-4.4259751-1.80333211-6.272-.262l-5.581 4.719c-.98720212.83990092-1.57895159 2.0537949-1.63249241 3.34883736-.05354083 1.29504244.43598865 2.55363964 1.35049241 3.47216264l2.082 2.082-2.656 2.247c-.99031555.8379145-1.58445093 2.0522789-1.63822643 3.3484015-.0537755 1.2961227.4377243 2.5555295 1.35522643 3.4725985l11.561 11.562c.8714552.8687438 2.0514924 1.3570102 3.282 1.358zm16.144-1.273c1.7950267-1.8016318 3.7104416-3.479165 5.733-5.021v9.537c-.194.2-.391.4-.576.589-.159.149-.309.3-.484.473-6.709 6.57-12.189 9.133-13.413 8.4-.047-.028-.155-.094-.193-.4-.243-2.005 2.805-7.45 8.933-13.578zm17.207 17.2c-8.121 8.122-18.818 2.093-23.662-1.434 3.511-1.04 8.386-4.7 12.557-8.788.144-.143.281-.281.447-.437.3-.3.6-.607.89-.909l.015-.015c1.435208-1.4934681 2.7933056-3.0591689 4.069-4.691 1.5686269-1.9510579 2.8794115-4.0960393 3.9-6.382.142-.349.253-.678.349-1 3.542 4.862 9.547 15.544 1.435 23.656zm3.594-26.872c1.1824975-.1459958 2.3617976.2945152 3.159 1.18 1.4774909 1.3694504 2.0951407 3.4330056 1.613 5.389-.3529456 1.3736971-1.0798736 2.6226287-2.1 3.608-.3854491.3793753-.8018951.7259119-1.245 1.036-1.1381194-3.2956314-2.7729737-6.3980778-4.848-9.2.8938717-1.0218098 2.093684-1.7278087 3.421-2.013zm-6.831.919.011.019c.173.281.171 1.111-.4 2.52-.5120932 1.1794881-1.1306533 2.309833-1.848 3.377v-5.752c1.374-.497 2.037-.369 2.237-.164zm-6.116-11.607c1.212186.8048134 1.9227259 2.1786246 1.879 3.633v16.69c-.62.786-1.289 1.585-2 2.389v-18.359c0-.024-.012-.043-.013-.066-.0113427-.5629594-.2386936-1.1000086-.635-1.5l-3.43-3.429-.6-.6c1.6896897-.0929979 3.366565.340984 4.799 1.242zm-36.57-3.851c-.51963174-.52309-.7975383-1.2392101-.76678801-1.97588821.03075029-.73667816.36737041-1.42714677.92878801-1.90511179l5.575-4.718c1.0503937-.87831119 2.5964475-.81378402 3.57.149l2.511 2.511-9.618 8.138zm-.857 11.15c-.52140137-.5219158-.80063388-1.2381909-.77004793-1.9752934.03058596-.7371024.36819981-1.4277815.93104793-1.9047066l16.726-14.152c1.049328-.88096824 2.5971912-.81679912 3.57.148l10.5 10.5 4.289 4.288c.0470993.0460847.0697065.1116828.061.177-.0053293.0593671-.0368604.1132634-.086.147l-10.047 5.77 4.142-4.895c.2391949-.2717414.3128444-.6515408.1925577-.9929917s-.415724-.5912279-.7724257-.6530462-.7189607.0739766-.947132.3550379l-12.347 14.588c-.4734801.5648112-1.1635411.9033043-1.9.932-.7372757.0304284-1.4537018-.2487458-1.976-.77z" id="L1_4764" fill="#d0d5db"/><path d="m45.984 51.466c-2.86 1.894-6.447 2.018-10.536.4-.5136248-.2032408-1.0947592.0483752-1.298.562s.0483752 1.0947592.562 1.298c1.929472.8024097 3.9927008 1.2345954 6.082 1.274 2.2364712.0211826 4.4281266-.6272939 6.293-1.862.3156656-.1887477.502245-.5355397.4858084-.9029636s-.2332361-.6961708-.5644942-.8559786c-.3312582-.1598078-.7235038-.1248805-1.0213142.0909422z" id="L1_4766" fill="#d0d5db"/></g><g transform="matrix(0.3333333432674408 0 0 0.3333333432674408 252.5 340)" id="L1_4769" fill="#000000"><path d="m49.988 26.186c.012-.066.012-.127.012-.166v-.126c0-2.275-.782-6.143-5.683-8.327.04-.092.091-.178.126-.272.5983293-1.8981351.3041423-3.9651665-.8-5.621-3.086-5.258-12.043-9.945-22.288-11.66-.4086821-.0679472-.8169429.12314337-1.0265609.4804922s-.1771815.80694901.0815609 1.1305078c.7280904.96848427.9767886 2.21528639.676 3.389-.63 1.9-3.152 3.49-7.295 4.6-3.963 1.06-5.85 3.663-5.39 7.373-3.568 1.367-7.847 3.69-8.344 8.251l-.034.283c-.01.14-.018.282-.02.431v.027.021c-.00079688.069527.00321267.1390259.012.208v.012c-.124 5.471.65 15.559 7.154 22.222 4.244 4.352 10.244 6.558 17.831 6.558s13.587-2.206 17.834-6.558c.8783302-.906633 1.6722751-1.8913657 2.372-2.942.9121527-.5013119 1.8924341-.8671489 2.91-1.086.372-.087.77-.172 1.184-.262 3.908-.841 9.813-2.113 10.611-8.019.432-3.224-.806-4.976-1.919-5.879-2.138-1.732-5.4-1.7-8.037-1.063.045-1.1.054-2.118.033-3.005zm-40.2-7.581c4.4085621-1.4375047 8.9831405-2.304228 13.612-2.579.3572656-.0164342.6786251-.222219.8430254-.5398372s.1468652-.698816-.046-1c-.1928652-.3011839-.5317598-.476597-.8890254-.4601628-4.395221.2560458-8.7459354 1.0208185-12.965 2.279-.165-2.473 1.118-4 3.97-4.761 4.911-1.316 7.834-3.312 8.684-5.931.3383053-1.06058882.3344571-2.20071906-.011-3.259 8.741 1.836 16.368 5.953 18.941 10.332.7971883 1.1402669 1.0333662 2.5808781.642 3.916-1.1 2.887-5.525 5.341-12.142 6.734-.1933027.0238974-.3812366.0800072-.556.166-.4000691.2202699-.6000755.6835983-.4859849 1.125817.1140905.4422187.5132865.7509555.9699849.750183.097182-.0002156.1938314-.0143594.287-.042l.2-.043c3.649-.768 9.587-2.509 12.422-6 3.936 1.658 4.766 4.524 4.736 6.693v.014c-.005.049-.008.1-.009.131-.166 4.283-9.443 8.869-22.991 8.869-13.531 0-22.8-4.574-22.988-8.874v-.016c0-.008 0-.014 0-.022-.00012713-.0334512-.00246557-.0668573-.007-.1 0-.136.015-.269.027-.4l.016-.133c0-.013 0-.025 0-.038.333-2.857 2.815-5.034 7.739-6.812zm31.612 28.44c-3.854 3.955-9.373 5.955-16.4 5.955s-12.546-2-16.4-5.955c-4.584-4.693-6.075-11.336-6.473-16.545 3.857 3.856 12.582 6.5 22.873 6.5s19.023-2.646 22.878-6.548c-.388 5.187-1.87 11.875-6.478 16.593zm15.33-15.236c1.042.843 1.445 2.209 1.2 4.057-.61 4.513-5.289 5.521-9.05 6.331-.426.092-.834.18-1.216.269-.292.068-.567.145-.839.223 1.6673223-3.5845578 2.6792929-7.4387161 2.988-11.38 2.76-.835 5.487-.661 6.919.5z" id="L1_4767" fill="#d0d5db"/><path d="m15.578 47.093c-1.4814477-.7087706-2.8276847-1.6709003-3.978-2.843-2.00887676-2.1548861-3.45856006-4.7696038-4.222-7.615-.16257036-.5216247-.71370991-.8162055-1.23774015-.6615647-.52403024.1546409-.82693558.7012495-.68025985 1.2275647.85420619 3.1583133 2.47087217 6.0585599 4.708 8.446 1.3133446 1.3385941 2.8504527 2.437447 4.542 3.247.32259.1635034.7083246.140086 1.0087664-.0612406.3004417-.2013267.468767-.5491861.4402013-.9097158s-.2495704-.6775415-.5779677-.8290436z" id="L1_4768" fill="#d0d5db"/><path d="m9.015 29.956c2.821 1.256 9.4 2.3 15.34 2.3 1.5936377.0088759 3.1863123-.0802925 4.769-.267.3610703-.036479.6740379-.265713.8177416-.5989572.1437037-.3332443.0955858-.7181879-.1257257-1.0058053-.2213114-.2876173-.581076-.4327598-.9400159-.3792375-6.236.78-15.685-.382-19.049-1.879-1.788-.8-2.954-2.046-2.9-3.112.04-.833.889-1.568 2.391-2.068.52467049-.174522.8085219-.7413295.63399997-1.266-.17452198-.5246705-.74132946-.808522-1.26599997-.634-3.159 1.054-3.711 2.881-3.759 3.874-.094 1.942 1.473 3.872 4.088 5.036z" id="L1_4770" fill="#d0d5db"/></g><g transform="matrix(1.1475409269332886 0 0 1.1475409269332886 315 140)" id="L1_4774" fill="#000000"><path d="m14.15 18.151c7.4294757-7.3916332 19.1638511-8.19463942 27.531-1.884.4396187.3344084 1.0670916.2491186 1.4015-.1905.3344084-.4396187.2491186-1.0670916-.1905-1.4015-9.1551557-6.94273875-22.0299384-6.06215351-30.1545459 2.0624541-8.12460761 8.1246075-9.00519285 20.9993902-2.0624541 30.1545459.213421.2921268.5679835.4462002.9271649.4028949.3591813-.0433052.6669636-.2772352.8048366-.6117163.1378731-.3344811.0843343-.7173476-.1400015-1.0011786-6.31046164-8.3670382-5.50790481-20.1010754 1.883-27.531z" id="L1_4771" fill="#d0d5db"/><path d="m45.924 18.917c-.4388888.3341208-.5243481.960524-.191 1.4 6.3394603 8.358667 5.5359753 20.1139266-1.8818609 27.5322672-7.4178362 7.4183405-19.1730411 8.2226248-27.5321391 1.8837328-.4396187-.3344084-1.0670916-.2491187-1.4015.1905s-.2491187 1.0670916.1905 1.4015c9.1551557 6.9427387 22.0299384 6.0621535 30.1545459-2.0624541 8.1246076-8.1246075 9.0051928-20.9993902 2.0624541-30.1545459-.3341863-.439526-.9613541-.5250285-1.401-.191z" id="L1_4772" fill="#d0d5db"/><path d="m52.463 2.463-7.531 7.53c-11.9279896-8.26614889-28.1923652-6.06468982-37.49369135 5.074946-9.30132618 11.1396357-8.56553478 27.5358226 1.69619397 37.7975514 10.26172878 10.2617287 26.65791568 10.9975201 37.79755138 1.6961939 11.1396358-9.3013261 13.3410949-25.5657017 5.074946-37.4936913l7.53-7.531c1.9534311-1.95343117 1.953431-5.12056878-.0000001-7.07399991-1.9534311-1.95343112-5.1205687-1.95343116-7.0739999-.00000009zm2.537 30.537c0 14.3594035-11.6405965 26-26 26s-26-11.6405965-26-26 11.6405965-26 26-26c14.3527783.01598214 25.9840179 11.6472217 26 26zm3.123-24.877-7.323 7.328c-1.2615909-1.5639902-2.6863066-2.9890412-4.25-4.251l7.327-7.327c1.1725005-1.17250052 3.0734995-1.17250052 4.246 0s1.1725005 3.07349948 0 4.246z" id="L1_4773" fill="#d0d5db"/><path d="m18.8 42.846 3.377 2.03c-.1129924.3641479-.1726121.7427497-.177 1.124 0 2.209139 1.790861 4 4 4s4-1.790861 4-4c-.0056835-.3814462-.0666512-.7600524-.181-1.124l3.377-2.03c1.5528015 1.5384452 4.0551985 1.5384452 5.608 0l4.111 2.471c.3067125.1838132.6881897.1900344 1.0007328.0163201.3125432-.1737142.5086695-.5009726.5145001-.8585s-.1795204-.691007-.4862329-.8748201l-4.125-2.479c.114063-.3629862.1750274-.7405612.181-1.121-.0068148-1.8184116-1.2393149-3.4034067-3-3.858v-2.284c1.7606851-.4545933 2.9931852-2.0395884 3-3.858-.0056835-.3814462-.0666512-.7600524-.181-1.124l4.125-2.476c.3175389-.178318.5130314-.5151643.5103323-.879336s-.203163-.6980833-.5233101-.871675c-.3201472-.1735917-.7093538-.1594139-1.0160222.037011l-4.115 2.468c-.5008008-.4894405-1.1215914-.8384628-1.8-1.012v-2.284c1.6304529-.4156919 2.8252075-1.8090881 2.9872206-3.48388.1620132-1.674792-.7435033-3.2713606-2.2640445-3.991868s-3.3296092-.4102429-4.5231761.775748l-4.111-2.471c-.305998-.1845277-.6871961-.1917903-1.0000008-.0190521-.3128046.1727381-.5096933.4992341-.5165.8565-.0068066.3572658.1775028.6910244.4835008.8755521l4.125 2.479c-.114063.3629862-.1750274.7405612-.181 1.121.0068148 1.8184116 1.2393149 3.4034067 3 3.858v2.284c-.6784086.1735372-1.2991992.5225595-1.8 1.012l-3.377-2.03c.1129924-.3641479.1726121-.7427497.177-1.124 0-2.209139-1.790861-4-4-4s-4 1.790861-4 4c.0056835.3814462.0666512.7600524.181 1.124l-3.381 2.03c-1.1934121-1.188013-3.0038509-1.4996515-4.5258017-.7790455-1.5219508.7206061-2.4282485 2.3185521-2.2655965 3.9946045s1.3592893 3.0699197 2.9913982 3.484441v2.284c-1.6304529.4156919-2.8252075 1.8090881-2.9872206 3.48388-.1620132 1.674792.7435033 3.2713606 2.2640445 3.991868s3.3296092.4102429 4.5231761-.775748zm7.2 5.154c-1.1045695 0-2-.8954305-2-2s.8954305-2 2-2 2 .8954305 2 2-.8954305 2-2 2zm12-8c0 1.1045695-.8954305 2-2 2s-2-.8954305-2-2 .8954305-2 2-2 2 .8954305 2 2zm-4-20c0-1.1045695.8954305-2 2-2s2 .8954305 2 2-.8954305 2-2 2-2-.8954305-2-2zm2 8c1.1045695 0 2 .8954305 2 2s-.8954305 2-2 2-2-.8954305-2-2 .8954305-2 2-2zm-3.819.876c-.1143488.3639476-.1753165.7425538-.181 1.124.0068148 1.8184116 1.2393149 3.4034067 3 3.858v2.284c-1.7606851.4545933-2.9931852 2.0395884-3 3.858.0056835.3814462.0666512.7600524.181 1.124l-3.381 2.03c-1.5528015-1.5384452-4.0551985-1.5384452-5.608 0l-3.377-2.03c.1157057-.3637469.1780215-.7423576.185-1.124-.0068148-1.8184116-1.2393149-3.4034067-3-3.858v-2.284c1.7606851-.4545933 2.9931852-2.0395884 3-3.858-.0056835-.3814462-.0666512-.7600524-.181-1.124l3.377-2.03c1.5528015 1.5384452 4.0551985 1.5384452 5.608 0zm-6.181-6.876c1.1045695 0 2 .8954305 2 2s-.8954305 2-2 2-2-.8954305-2-2 .8954305-2 2-2zm-12 8c0-1.1045695.8954305-2 2-2s2 .8954305 2 2-.8954305 2-2 2-2-.8954305-2-2zm0 10c0-1.1045695.8954305-2 2-2s2 .8954305 2 2-.8954305 2-2 2-2-.8954305-2-2z" id="L1_4775" fill="#d0d5db"/></g><g transform="matrix(1.2735950710130142 0.5660422324844608 -0.5660422324844608 1.2735950710130142 320.7734148441434 -42.18911910492425)" id="L1_4794" fill="#000000"><path d="m26.978 58h-18.978c-.55228475 0-1 .4477153-1 1s.44771525 1 1 1h44c.5522847 0 1-.4477153 1-1s-.4477153-1-1-1h-18.978c5.852-4.643 19.978-17.741 19.978-36 0-12.131-10.318-22-23-22s-23 9.869-23 22c0 18.259 14.126 31.357 19.978 36zm-17.978-36c0-11.028 9.42-20 21-20s21 8.972 21 20c0 19.5-17.615 33.3-21 35.773-3.385-2.473-21-16.273-21-35.773z" id="L1_4787" fill="#d0d5db"/><path d="m4 60c.55228475 0 1-.4477153 1-1s-.44771525-1-1-1h-3c-.55228475 0-1 .4477153-1 1s.44771525 1 1 1z" id="L1_4788" fill="#d0d5db"/><path d="m59 60c.5522847 0 1-.4477153 1-1s-.4477153-1-1-1h-3c-.5522847 0-1 .4477153-1 1s.4477153 1 1 1z" id="L1_4789" fill="#d0d5db"/><path d="m34 41c3.49025-.0058776 6.4436971-2.5802293 6.926-6.037 4.023-.315 5.037-2.718 5.714-5.176.2455027-.9030566.0555256-1.8689495-.5136957-2.6117617s-1.4524742-1.1774438-2.3883043-1.1752383h-2.738c0-1.1045695-.8954305-2-2-2h-18c-1.1045695 0-2 .8954305-2 2v8c.0044086 3.8641657 3.1358343 6.9955914 7 7zm9.738-13c.3145353.0009373.610529.1489341.8.4.1876665.2425597.2502701.559282.169.855-.623 2.265-1.246 3.462-3.712 3.7v-4.955zm-22.738 6v-3h3c.5522847 0 1-.4477153 1-1s-.4477153-1-1-1h-3v-3h18v3h-11c-.5522847 0-1 .4477153-1 1s.4477153 1 1 1h11v3c-.0033061 2.7600532-2.2399468 4.9966939-5 5h-8c-2.7600532-.0033061-4.9966939-2.2399468-5-5z" id="L1_4790" fill="#d0d5db"/><path d="m23.324 17.429c-.8165367.6049822-1.3057349 1.5549281-1.324 2.571 0 .5522847.4477153 1 1 1s1-.4477153 1-1c0-.459.2-.657.676-1.1.8309154-.5926703 1.3241726-1.5503734 1.3241726-2.571s-.4932572-1.9783297-1.3241726-2.571c-.481-.441-.676-.638-.676-1.1s.2-.654.675-1.094c.8152257-.6030797 1.3046459-1.5501539 1.325-2.564 0-.55228475-.4477153-1-1-1s-1 .44771525-1 1c0 .458-.2.654-.675 1.094-.8309032.5922319-1.3242151 1.5496379-1.3242151 2.57s.4933119 1.9777681 1.3242151 2.57c.481.441.676.639.676 1.1s-.196.654-.677 1.095z" id="L1_4791" fill="#d0d5db"/><path d="m29.324 17.429c-.8165367.6049822-1.3057349 1.5549281-1.324 2.571 0 .5522847.4477153 1 1 1s1-.4477153 1-1c0-.459.2-.657.676-1.1.8309154-.5926703 1.3241726-1.5503734 1.3241726-2.571s-.4932572-1.9783297-1.3241726-2.571c-.481-.441-.676-.638-.676-1.1s.2-.654.675-1.094c.8152257-.6030797 1.3046459-1.5501539 1.325-2.564 0-.55228475-.4477153-1-1-1s-1 .44771525-1 1c0 .458-.2.654-.675 1.094-.8309032.5922319-1.3242151 1.5496379-1.3242151 2.57s.4933119 1.9777681 1.3242151 2.57c.481.441.676.639.676 1.1s-.196.654-.677 1.095z" id="L1_4792" fill="#d0d5db"/><path d="m35.324 17.429c-.8165367.6049822-1.3057349 1.5549281-1.324 2.571 0 .5522847.4477153 1 1 1s1-.4477153 1-1c0-.459.2-.657.676-1.1.8309154-.5926703 1.3241726-1.5503734 1.3241726-2.571s-.4932572-1.9783297-1.3241726-2.571c-.481-.441-.676-.638-.676-1.1s.2-.654.675-1.094c.8152257-.6030797 1.3046459-1.5501539 1.325-2.564 0-.55228475-.4477153-1-1-1s-1 .44771525-1 1c0 .458-.2.654-.675 1.094-.8309032.5922319-1.3242151 1.5496379-1.3242151 2.57s.4933119 1.9777681 1.3242151 2.57c.481.441.676.639.676 1.1s-.196.654-.677 1.095z" id="L1_4793" fill="#d0d5db"/><path d="m29.35 52.15c.374224.3200877.925776.3200877 1.3 0 2.3264829-1.997393 4.4961914-4.1704446 6.49-6.5.2537295-.2966426.3116552-.7138095.1483471-1.0683599-.163308-.3545504-.5179941-.5816658-.9083471-.5816401h-12.76c-.390353-.0000257-.7450391.2270897-.9083471.5816401-.1633081.3545504-.1053824.7717173.1483471 1.0683599 1.9938086 2.3295554 4.1635171 4.502607 6.49 6.5zm4.8-6.15c-1.3144288 1.4236013-2.6995058 2.7803092-4.15 4.065-1.4511768-1.2846398-2.8369221-2.6413485-4.152-4.065z" id="L1_4795" fill="#d0d5db"/></g><g transform="matrix(0.9420351295780763 0.20724772374339778 -0.20724772374339778 0.9420351295780763 222.96528225467958 226.5240075794709)" id="L1_4807" fill="#000000"><path d="m3.191 26.356c-1.08373586.0006411-2.09292516.5517912-2.67924974 1.4632227-.58632459.9114314-.66947428 2.0583035-.22075026 3.0447773l3.919 8.622c.52841187 1.1669356 1.2639684 2.2284274 2.171 3.133l6.164 6.164c-.3483345.3677232-.5432551.8544881-.545 1.361v8c0 1.1045695.8954305 2 2 2h11c1.1045695 0 2-.8954305 2-2v-8c0-1.1045695-.8954305-2-2-2v-1.862c.0304617-2.3678298-.7418128-4.676194-2.191-6.549-.850089-1.1189799-2.0090488-1.9647355-3.334-2.433-2.1058796-.8854423-4.042757-2.128427-5.725-3.674-1.5598018-1.2876324-3.77768539-1.4053243-5.465-.29l-2.163-5.047c-.50179827-1.1731047-1.65507849-1.9336952-2.931-1.933zm21.809 31.788h-11v-8h11zm-18.48-23.844c.59521432 1.3897751 1.45133033 2.6525632 2.522 3.72l4.568 4.568c.2510745.2599566.6228779.3642126.9725073.2726972.3496295-.0915155.6226744-.3645604.7141899-.7141899.0915154-.3496294-.0127406-.7214328-.2726972-.9725073l-4.568-4.574c-.4598042-.457803-.8728448-.9602855-1.233-1.5.9601048-.7392667 2.3035961-.7172831 3.239.053 1.8688835 1.7164072 4.0295301 3.0849296 6.38 4.041.9579925.348329 1.7937239.9682646 2.405 1.784 1.1663266 1.5194181 1.7841684 3.3888035 1.753 5.304v1.862h-8.269l-6.939-6.944c-.73668089-.7353814-1.33429765-1.597928-1.764-2.546l-3.919-8.618c-.16679314-.3678567-.13543483-.7952315.08326534-1.1348029s.59483067-.5448965.99873466-.5451971c.4753271-.0002905.90499268.2830055 1.092.72z" id="L1_4796" fill="#d0d5db"/><path d="m23 53.144h-1c-.5522847 0-1 .4477153-1 1s.4477153 1 1 1h1c.5522847 0 1-.4477153 1-1s-.4477153-1-1-1z" id="L1_4797" fill="#d0d5db"/><path d="m35 60.144h11c1.1045695 0 2-.8954305 2-2v-8c-.0012041-.5062376-.195395-.9929664-.543-1.361l6.164-6.163c.906808-.9051405 1.6423266-1.9669162 2.171-3.134l3.919-8.622c.4818642-1.0454888.3626536-2.2695544-.3118809-3.2024226-.6745345-.9328683-1.7996057-1.4296203-2.9434316-1.2996119-1.1438259.1300085-2.1287161.866581-2.5766875 1.9270345l-2.158 5.035c-1.6917867-1.1118527-3.9109271-.990167-5.471.3-1.6820889 1.5462849-3.6189755 2.7899522-5.725 3.676-1.3242088.467618-2.4827589 1.3122855-3.333 2.43-1.4502591 1.8734456-2.2229353 4.1830144-2.192 6.552v1.862c-1.1045695 0-2 .8954305-2 2v8c0 1.1045695.8954305 2 2 2zm2-13.862c-.0299758-1.9139504.5881741-3.7817922 1.754-5.3.6099514-.8147132 1.4438767-1.4342502 2.4-1.783 2.3504699-.9560704 4.5111165-2.3245928 6.38-4.041.9346192-.7758438 2.2818826-.8011698 3.245-.061-.3608003.5407194-.7745046 1.0441992-1.235 1.503l-4.568 4.569c-.3789722.3923789-.3735524 1.0160848.0121814 1.4018186s1.0094397.3911536 1.4018186.0121814l4.568-4.568c1.070142-1.0659579 1.9262291-2.3270061 2.522-3.715l2.237-5.219c.1870073-.4369945.6166729-.7202905 1.092-.72.403904.0003006.7800345.2056257.9987347.5451971.2187001.3395714.2500584.7669462.0832653 1.1348029l-3.919 8.622c-.4299366.9484833-1.0278964 1.8113749-1.765 2.547l-6.938 6.939h-8.269zm-2 3.862h11v8h-11z" id="L1_4798" fill="#d0d5db"/><path d="m38 53.144h-1c-.5522847 0-1 .4477153-1 1s.4477153 1 1 1h1c.5522847 0 1-.4477153 1-1s-.4477153-1-1-1z" id="L1_4799" fill="#d0d5db"/><path d="m15.173 9.394c-1.4525885 1.4955115-2.2366605 3.5161298-2.173 5.6.1279344 3.400991 1.5875384 6.615424 4.064 8.95 2.3580872 2.4685161 5.5882333 3.9166983 9 4.035 2.0755417.0573078 4.0878596-.7175192 5.589-2.152 1.4522232-1.4956761 2.2359266-3.5162743 2.172-5.6-.128095-3.4002499-1.5868708-6.6140817-4.062-8.949-4.53-4.53-11.073-5.378-14.59-1.884zm3.3 13.134c-2.0866162-1.970233-3.3309785-4.6707106-3.473-7.537-.0087693-.7867861.1247085-1.5686819.394-2.308.873308.5173915 1.8524797.8302204 2.864.915 2.2458937.1173053 4.0418355 1.9093654 4.164 4.155.2496496 3.1257854 2.7347511 5.6062228 5.861 5.85.737582.0493442 1.454144.266536 2.095.635-.05.054-.087.12-.139.172-2.734 2.716-8.011 1.871-11.762-1.882zm13.346-2.3c.0090896.786725-.1240491 1.568619-.393 2.308-.8735208-.5177261-1.8530953-.8305745-2.865-.915-2.2440012-.1186911-4.0379906-1.9092314-4.161-4.153-.249583-3.1254373-2.734141-5.6057555-5.86-5.85-.7373389-.0496962-1.4535706-.2672336-2.094-.636.05-.054.086-.119.138-.171 1.1264093-1.07020135 2.6351141-1.64371091 4.188-1.592 2.8801616.13224932 5.596416 1.3777968 7.576 3.474 2.0866919 1.9699682 3.3316852 4.6699018 3.475 7.536z" id="L1_4800" fill="#d0d5db"/><path d="m34.045 26.8c-.0130789.4724717.3064262.8895803.766 1 .5896298.14025 1.1939293.2094087 1.8.206 5.74-.011 10.4-6.067 10.391-13.5.01-6.589-3.608-12.182-8.6-13.3-.5912234-.13495999-1.1955716-.20404752-1.802-.206-3.36.011-6.519 2.12-8.45 5.644-.1808712.31408344-.1776383.70144856.0084499 1.01246941.1860883.31102085.5258994.49700638.8881758.48611673.3622765-.01088965.6903031-.21694968.8573743-.53858614 1.6-2.917 4.042-4.6 6.7-4.6.16 0 .322.007.486.021-.2021515.94816886-.645427 1.82817572-1.287 2.555-1.1548196 1.31243412-1.7828505 3.00594464-1.763 4.754-.0191841 1.7528009.6113539 3.4506224 1.77 4.766.8909333.9736435 1.378829 2.2493211 1.365 3.569.0185816 1.3147155-.4686521 2.5863203-1.361 3.552-1.1135158 1.2685621-1.7404241 2.8912943-1.769 4.579zm3.367-3.376c2.3526874-2.7387833 2.3526874-6.7852167 0-9.524-.8915799-.972916-1.3799041-2.2484217-1.366-3.568-.0187215-1.3149257.4689336-2.58669568 1.362-3.552.8043684-.94307216 1.3644811-2.0694789 1.631-3.28 3.472 1.454 5.969 5.941 5.961 11 .008 6.332-3.757 11.49-8.393 11.5-.165 0-.325-.006-.482-.019.2012896-.9496618.6446282-1.831172 1.287-2.559z" id="L1_4801" fill="#d0d5db"/><path d="m5 14c0 .5522847.44771525 1 1 1h3c.55228475 0 1-.4477153 1-1s-.44771525-1-1-1h-3c-.55228475 0-1 .4477153-1 1z" id="L1_4802" fill="#d0d5db"/><path d="m50 14c0 .5522847.4477153 1 1 1h3c.5522847 0 1-.4477153 1-1s-.4477153-1-1-1h-3c-.5522847 0-1 .4477153-1 1z" id="L1_4803" fill="#d0d5db"/><path d="m11.313 23.634-2.6 1.5c-.31195078.1773616-.50495322.5082732-.5057421.8671183-.00078889.3588451.19075673.6906021.50192468.8693336.31116795.1787314.694247.1770325 1.00381742-.0044519l2.6-1.5c.3119508-.1773616.5049532-.5082732.5057421-.8671183s-.1907567-.6906021-.5019247-.8693336c-.3111679-.1787314-.694247-.1770325-1.0038174.0044519z" id="L1_4804" fill="#d0d5db"/><path d="m50.285 1.134-2.6 1.5c-.3119508.17736158-.5049532.50827321-.5057421.8671183s.1907567.69060211.5019247.86933356c.3111679.17873145.694247.17703252 1.0038174-.00445186l2.6-1.5c.3119508-.17736158.5049532-.50827321.5057421-.8671183s-.1907567-.69060211-.5019247-.86933356c-.3111679-.17873145-.694247-.17703252-1.0038174.00445186z" id="L1_4805" fill="#d0d5db"/><path d="m47.687 25.366 2.6 1.5c.1518701.0881308.3244113.1343718.5.134.4525881-.0000199.8487411-.3040116.9658809-.7411777.1171399-.4371661-.0739396-.8985084-.4658809-1.1248223l-2.6-1.5c-.3095704-.1814844-.6926495-.1831833-1.0038174-.0044519-.311168.1787315-.5027136.5104885-.5019247.8693336s.1937913.6897567.5057421.8671183z" id="L1_4806" fill="#d0d5db"/><path d="m12.313 2.634-2.6-1.5c-.47785996-.27169029-1.08542045-.10674157-1.36027453.3693057-.27485408.47604726-.11393908 1.08468853.36027453 1.3626943l2.6 1.5c.3095704.18148438.6926495.18318331 1.0038174.00445186.311168-.17873145.5027136-.51048847.5019247-.86933356s-.1937913-.68975672-.5057421-.8671183z" id="Shape" fill="#d0d5db"/></g></defs><g fi:class="KUsePattern" opacity="0.05"><pattern id="pattern_L1_4719" width="350" height="350" patternUnits="userSpaceOnUse"><use xlink:href="#L1_4719" x="-350" y="-350"/><use xlink:href="#L1_4719" x="0" y="-350"/><use xlink:href="#L1_4719" x="350" y="-350"/><use xlink:href="#L1_4719" x="-350" y="0"/><use xlink:href="#L1_4719" x="0" y="0"/><use xlink:href="#L1_4719" x="350" y="0"/><use xlink:href="#L1_4719" x="-350" y="350"/><use xlink:href="#L1_4719" x="0" y="350"/><use xlink:href="#L1_4719" x="350" y="350"/></pattern><rect x="0" y="0" width="100%" height="100%" fill="url(#pattern_L1_4719)"/></g><g fi:class="KUsePattern" opacity="0.05"><pattern id="pattern_L1_4722" width="350" height="350" patternUnits="userSpaceOnUse"><use xlink:href="#L1_4722" x="-350" y="-350"/><use xlink:href="#L1_4722" x="0" y="-350"/><use xlink:href="#L1_4722" x="350" y="-350"/><use xlink:href="#L1_4722" x="-350" y="0"/><use xlink:href="#L1_4722" x="0" y="0"/><use xlink:href="#L1_4722" x="350" y="0"/><use xlink:href="#L1_4722" x="-350" y="350"/><use xlink:href="#L1_4722" x="0" y="350"/><use xlink:href="#L1_4722" x="350" y="350"/></pattern><rect x="0" y="0" width="100%" height="100%" fill="url(#pattern_L1_4722)"/></g><g fi:class="KUsePattern" opacity="0.05"><pattern id="pattern_L1_4729" width="350" height="350" patternUnits="userSpaceOnUse"><use xlink:href="#L1_4729" x="-350" y="-350"/><use xlink:href="#L1_4729" x="0" y="-350"/><use xlink:href="#L1_4729" x="350" y="-350"/><use xlink:href="#L1_4729" x="-350" y="0"/><use xlink:href="#L1_4729" x="0" y="0"/><use xlink:href="#L1_4729" x="350" y="0"/><use xlink:href="#L1_4729" x="-350" y="350"/><use xlink:href="#L1_4729" x="0" y="350"/><use xlink:href="#L1_4729" x="350" y="350"/></pattern><rect x="0" y="0" width="100%" height="100%" fill="url(#pattern_L1_4729)"/></g><g fi:class="KUsePattern" opacity="0.05"><pattern id="pattern_L1_4738" width="350" height="350" patternUnits="userSpaceOnUse"><use xlink:href="#L1_4738" x="-350" y="-350"/><use xlink:href="#L1_4738" x="0" y="-350"/><use xlink:href="#L1_4738" x="350" y="-350"/><use xlink:href="#L1_4738" x="-350" y="0"/><use xlink:href="#L1_4738" x="0" y="0"/><use xlink:href="#L1_4738" x="350" y="0"/><use xlink:href="#L1_4738" x="-350" y="350"/><use xlink:href="#L1_4738" x="0" y="350"/><use xlink:href="#L1_4738" x="350" y="350"/></pattern><rect x="0" y="0" width="100%" height="100%" fill="url(#pattern_L1_4738)"/></g><g fi:class="KUsePattern" opacity="0.05"><pattern id="pattern_L1_4761" width="350" height="350" patternUnits="userSpaceOnUse"><use xlink:href="#L1_4761" x="-350" y="-350"/><use xlink:href="#L1_4761" x="0" y="-350"/><use xlink:href="#L1_4761" x="350" y="-350"/><use xlink:href="#L1_4761" x="-350" y="0"/><use xlink:href="#L1_4761" x="0" y="0"/><use xlink:href="#L1_4761" x="350" y="0"/><use xlink:href="#L1_4761" x="-350" y="350"/><use xlink:href="#L1_4761" x="0" y="350"/><use xlink:href="#L1_4761" x="350" y="350"/></pattern><rect x="0" y="0" width="100%" height="100%" fill="url(#pattern_L1_4761)"/></g><g fi:class="KUsePattern" opacity="0.05"><pattern id="pattern_L1_4765" width="350" height="350" patternUnits="userSpaceOnUse"><use xlink:href="#L1_4765" x="-350" y="-350"/><use xlink:href="#L1_4765" x="0" y="-350"/><use xlink:href="#L1_4765" x="350" y="-350"/><use xlink:href="#L1_4765" x="-350" y="0"/><use xlink:href="#L1_4765" x="0" y="0"/><use xlink:href="#L1_4765" x="350" y="0"/><use xlink:href="#L1_4765" x="-350" y="350"/><use xlink:href="#L1_4765" x="0" y="350"/><use xlink:href="#L1_4765" x="350" y="350"/></pattern><rect x="0" y="0" width="100%" height="100%" fill="url(#pattern_L1_4765)"/></g><g fi:class="KUsePattern" opacity="0.05"><pattern id="pattern_L1_4769" width="350" height="350" patternUnits="userSpaceOnUse"><use xlink:href="#L1_4769" x="-350" y="-350"/><use xlink:href="#L1_4769" x="0" y="-350"/><use xlink:href="#L1_4769" x="350" y="-350"/><use xlink:href="#L1_4769" x="-350" y="0"/><use xlink:href="#L1_4769" x="0" y="0"/><use xlink:href="#L1_4769" x="350" y="0"/><use xlink:href="#L1_4769" x="-350" y="350"/><use xlink:href="#L1_4769" x="0" y="350"/><use xlink:href="#L1_4769" x="350" y="350"/></pattern><rect x="0" y="0" width="100%" height="100%" fill="url(#pattern_L1_4769)"/></g><g fi:class="KUsePattern" opacity="0.05"><pattern id="pattern_L1_4774" width="350" height="350" patternUnits="userSpaceOnUse"><use xlink:href="#L1_4774" x="-350" y="-350"/><use xlink:href="#L1_4774" x="0" y="-350"/><use xlink:href="#L1_4774" x="350" y="-350"/><use xlink:href="#L1_4774" x="-350" y="0"/><use xlink:href="#L1_4774" x="0" y="0"/><use xlink:href="#L1_4774" x="350" y="0"/><use xlink:href="#L1_4774" x="-350" y="350"/><use xlink:href="#L1_4774" x="0" y="350"/><use xlink:href="#L1_4774" x="350" y="350"/></pattern><rect x="0" y="0" width="100%" height="100%" fill="url(#pattern_L1_4774)"/></g><g fi:class="KUsePattern" opacity="0.05"><pattern id="pattern_L1_4794" width="350" height="350" patternUnits="userSpaceOnUse"><use xlink:href="#L1_4794" x="-350" y="-350"/><use xlink:href="#L1_4794" x="0" y="-350"/><use xlink:href="#L1_4794" x="350" y="-350"/><use xlink:href="#L1_4794" x="-350" y="0"/><use xlink:href="#L1_4794" x="0" y="0"/><use xlink:href="#L1_4794" x="350" y="0"/><use xlink:href="#L1_4794" x="-350" y="350"/><use xlink:href="#L1_4794" x="0" y="350"/><use xlink:href="#L1_4794" x="350" y="350"/></pattern><rect x="0" y="0" width="100%" height="100%" fill="url(#pattern_L1_4794)"/></g><g fi:class="KUsePattern" opacity="0.05"><pattern id="pattern_L1_4807" width="350" height="350" patternUnits="userSpaceOnUse"><use xlink:href="#L1_4807" x="-350" y="-350"/><use xlink:href="#L1_4807" x="0" y="-350"/><use xlink:href="#L1_4807" x="350" y="-350"/><use xlink:href="#L1_4807" x="-350" y="0"/><use xlink:href="#L1_4807" x="0" y="0"/><use xlink:href="#L1_4807" x="350" y="0"/><use xlink:href="#L1_4807" x="-350" y="350"/><use xlink:href="#L1_4807" x="0" y="350"/><use xlink:href="#L1_4807" x="350" y="350"/></pattern><rect x="0" y="0" width="100%" height="100%" fill="url(#pattern_L1_4807)"/></g></svg>